<?xml version="1.0" encoding="UTF-8" standalone="no"?>
<svg
   xmlns:dc="http://purl.org/dc/elements/1.1/"
   xmlns:cc="http://creativecommons.org/ns#"
   xmlns:rdf="http://www.w3.org/1999/02/22-rdf-syntax-ns#"
   xmlns:svg="http://www.w3.org/2000/svg"
   xmlns="http://www.w3.org/2000/svg"
   xmlns:sodipodi="http://sodipodi.sourceforge.net/DTD/sodipodi-0.dtd"
   xmlns:inkscape="http://www.inkscape.org/namespaces/inkscape"
   id="fe68a858-d407-4692-b55a-9dffb576a509"
   data-name="Layer 1"
   width="573.76434"
   height="600"
   viewBox="0 0 573.76434 600.00001"
   version="1.1"
   sodipodi:docname="ais-local.svg"
   inkscape:version="0.92.3 (2405546, 2018-03-11)">
  <metadata
     id="metadata146">
    <rdf:RDF>
      <cc:Work
         rdf:about="">
        <dc:format>image/svg+xml</dc:format>
        <dc:type
           rdf:resource="http://purl.org/dc/dcmitype/StillImage" />
        <dc:title>smart home</dc:title>
      </cc:Work>
    </rdf:RDF>
  </metadata>
  <sodipodi:namedview
     pagecolor="#ffffff"
     bordercolor="#666666"
     borderopacity="1"
     objecttolerance="10"
     gridtolerance="10"
     guidetolerance="10"
     inkscape:pageopacity="0"
     inkscape:pageshadow="2"
     inkscape:window-width="1920"
     inkscape:window-height="1015"
     id="namedview144"
     showgrid="false"
     inkscape:zoom="0.34667005"
     inkscape:cx="752.21177"
     inkscape:cy="-462.57444"
     inkscape:window-x="0"
     inkscape:window-y="0"
     inkscape:window-maximized="1"
     inkscape:current-layer="fe68a858-d407-4692-b55a-9dffb576a509" />
  <defs
     id="defs9">
    <linearGradient
       id="b5ddeed3-b78d-400e-805e-1392ba69a239"
       x1="283.67999"
       y1="848.60999"
       x2="283.67999"
       y2="438.70999"
       gradientTransform="matrix(-0.50776496,0,0,0.50537252,593.57684,72.586072)"
       gradientUnits="userSpaceOnUse">
      <stop
         offset="0"
         stop-color="gray"
         stop-opacity="0.25"
         id="stop2" />
      <stop
         offset="0.54"
         stop-color="gray"
         stop-opacity="0.12"
         id="stop4" />
      <stop
         offset="1"
         stop-color="gray"
         stop-opacity="0.1"
         id="stop6" />
    </linearGradient>
  </defs>
  <title
     id="title11">smart home</title>
  <path
     d="M 333.36762,157.19049 C 296.58512,155.922 261.54934,144.10134 228.09778,131.16885 194.64623,118.23637 161.50441,103.91917 125.60543,97.061262 c -23.09315,-4.40684 -49.502015,-5.05372 -68.106523,7.292528 -17.90887,11.85604 -23.692313,32.34384 -26.799834,51.32058 -2.340797,14.29193 -3.71684,29.3116 2.691154,42.70903 4.453099,9.28369 12.358999,17.09169 17.827627,25.98625 19.015799,30.95913 5.585415,69.12991 -15.039997,99.35118 -9.647535,14.18076 -20.884374,27.70453 -28.3434399,42.8 -7.45906731,15.09548 -10.9118691,32.38428 -4.3870893,47.77792 6.4740033,15.26226 21.8897472,26.70388 38.5952142,34.78984 33.923782,16.37408 73.900118,21.06393 112.881238,23.71714 86.28957,5.87243 173.04122,3.3304 259.55928,0.78332 32.01967,-0.94504 64.17642,-1.90019 95.67816,-6.82758 17.48742,-2.73407 35.54355,-7.07521 48.23767,-17.56169 16.12154,-13.31151 20.11765,-35.85113 9.31241,-52.55874 -18.11706,-27.99259 -68.21822,-34.94651 -80.88188,-64.99092 -6.97162,-16.53578 0.18787,-34.95661 10.31778,-50.29466 21.73234,-32.9048 58.1594,-61.76663 60.07875,-99.37645 1.32019,-25.82959 -16.19262,-51.69961 -43.26665,-63.91952 -28.38406,-12.81119 -67.73585,-11.19905 -88.67607,10.00638 -21.54955,21.8422 -59.43896,30.24654 -91.91561,29.12462 z"
     id="path13"
     inkscape:connector-curvature="0"
     style="opacity:0.1;fill:#f9a826;stroke-width:0.50656736" />
  <rect
     x="168.78067"
     y="161.93089"
     width="260.99118"
     height="312.81042"
     rx="10.053745"
     id="rect15"
     style="fill:#464353;stroke-width:0.50656736" />
  <rect
     x="191.29495"
     y="191.5811"
     width="215.96259"
     height="249.69952"
     stroke-miterlimit="10"
     id="rect17"
     style="opacity:0.1;fill:#ffffff;stroke:#ffffff;stroke-width:0.50656736;stroke-miterlimit:10" />
  <ellipse
     cx="299.27628"
     cy="459.65094"
     id="circle19"
     style="fill:#ffffff;stroke-width:0.50656736"
     rx="9.190546"
     ry="9.1472425" />
  <path
     d="m 299.27627,184.54125 a 4.3413904,4.3209351 0 1 1 4.36678,-4.31083 4.3464681,4.3259888 0 0 1 -4.36678,4.31083 z"
     id="path21"
     inkscape:connector-curvature="0"
     style="fill:#ffffff;stroke-width:0.50656736" />
  <path
     d="m 299.27627,176.15206 a 4.087508,4.0682488 0 1 1 -4.06212,4.04298 4.0925855,4.0733025 0 0 1 4.06212,-4.04298 m 0,-0.50537 a 4.5952729,4.5736213 0 1 0 4.59527,4.54835 4.5952729,4.5736213 0 0 0 -4.59527,-4.54835 z"
     id="path23"
     inkscape:connector-curvature="0"
     style="fill:#ffffff;stroke-width:0.50656736" />
  <path
     d="m 295.92502,239.46007 v -8.89455 h 6.70249 v 8.89455 h 6.81421 V 226.1233 h 4.35662 l -14.52207,-13.34184 -14.51701,13.34184 h 4.35155 v 13.33677 z"
     id="path25"
     inkscape:connector-curvature="0"
     style="fill:#f9a826;stroke-width:0.50656736" />
  <path
     d="m 224.14229,280.79955 v -9.60208 a 2.048835,2.0391815 0 0 0 -4.09767,0 v 9.60208 a 4.1890609,4.1693233 0 1 0 4.09767,0 z m -2.75717,-9.60208 a 0.70071568,0.69741413 0 0 1 1.39636,0 v 2.15288 h -1.39636 z"
     stroke-miterlimit="10"
     id="path27"
     inkscape:connector-curvature="0"
     style="fill:#ffffff;stroke:#ffffff;stroke-width:0.50656736;stroke-miterlimit:10" />
  <rect
     x="250.46989"
     y="278.17163"
     width="121.86359"
     height="1.3493446"
     id="rect29"
     style="opacity:0.3;fill:#f9a826;stroke-width:0.50656736" />
  <ellipse
     cx="288.10037"
     cy="278.84882"
     id="circle31"
     style="fill:#f9a826;stroke-width:0.50656736"
     rx="3.2141521"
     ry="3.1990077" />
  <rect
     x="250.46989"
     y="278.17163"
     width="37.630459"
     height="1.3493446"
     id="rect33"
     style="fill:#f9a826;stroke-width:0.50656736" />
  <path
     d="m 222.80179,327.71833 a 0.73118153,0.72773639 0 0 0 -0.75149,-0.63677 0.74133686,0.7378439 0 0 0 -0.73627,0.54581 l -0.74133,4.01265 a 1.5639161,1.5565474 0 0 0 -0.0305,0.30828 1.523295,1.5161177 0 0 0 3.04659,0 1.5232948,1.5161175 0 0 0 -0.0508,-0.36893 z m 5.76821,1.72332 a 1.985361,1.9760066 0 0 0 -0.24881,-0.17182 l -3.00597,-2.06193 a 0.60931795,0.60644702 0 0 0 -0.77688,0.0404 0.50776496,0.50537252 0 0 0 -0.0812,0.66709 l 2.31541,2.85536 a 1.2998783,1.2937536 0 0 0 0.15233,0.18699 1.2541795,1.2482701 0 0 0 1.64008,0 1.0155299,1.010745 0 0 0 0,-1.51612 z m 2.03106,-2.94632 -2.8181,-0.10107 a 0.33004722,0.32849214 0 0 0 -0.37575,0.2628 0.36559077,0.36386821 0 0 0 0.22342,0.38408 v 0 l 2.7267,0.76816 c 0.39606,0.0859 0.83781,-0.096 0.83781,-0.50538 0,-0.50537 -0.14725,-0.7631 -0.59408,-0.81364 z m -14.00416,0.54581 a 0.36559077,0.36386821 0 0 0 0.22341,-0.38408 0.33512488,0.33354586 0 0 0 -0.38082,-0.2628 l -2.81301,0.10107 c -0.45191,0.0505 -0.58394,0.29817 -0.58394,0.80859 0,0.40431 0.43161,0.59129 0.82258,0.50538 l 2.7267,-0.77322 z m 2.30017,0.16171 -3.00596,2.05687 a 1.6299255,1.6222458 0 0 0 -0.24373,0.17183 1.0155299,1.010745 0 0 0 0,1.51611 1.2135583,1.2078403 0 0 0 1.635,0 0.88351103,0.87934814 0 0 0 0.15741,-0.18193 l 2.3154,-2.84525 a 0.50776496,0.50537252 0 0 0 -0.0812,-0.66709 0.6143956,0.61150075 0 0 0 -0.79718,-0.0505 z m 3.21924,-13.32161 c 0,0 1.32018,1.51611 1.32018,2.7947 a 2.0310598,2.0214901 0 0 1 -2.00567,2.18321 2.1376905,2.1276183 0 0 1 -2.13261,-2.18321 v -0.29817 a 8.3324229,8.2931632 0 0 0 -1.89904,5.29125 4.7019035,4.6797495 0 1 0 9.4038,0 c 0,-3.15352 -1.56391,-6.8478 -4.70698,-7.78778 z m -0.16757,10.71389 a 1.8736527,1.8648246 0 0 1 -1.89396,-1.83956 1.8381092,1.8294485 0 0 1 1.65023,-1.82439 4.5698846,4.5483526 0 0 0 2.72162,-1.51612 8.2511804,8.2123036 0 0 1 0.34528,2.36514 2.8231732,2.8098712 0 0 1 -2.82317,2.80988 z"
     stroke-miterlimit="10"
     id="path35"
     inkscape:connector-curvature="0"
     style="fill:#ffffff;stroke:#ffffff;stroke-width:0.50656736;stroke-miterlimit:10" />
  <rect
     x="250.46989"
     y="322.9325"
     width="121.86359"
     height="1.3493446"
     id="rect37"
     style="opacity:0.3;fill:#f9a826;stroke-width:0.50656736" />
  <ellipse
     cx="316.53522"
     cy="323.60968"
     id="circle39"
     style="fill:#f9a826;stroke-width:0.50656736"
     rx="3.2141521"
     ry="3.1990077" />
  <rect
     x="250.46989"
     y="322.9325"
     width="66.375038"
     height="1.3493446"
     id="rect41"
     style="fill:#f9a826;stroke-width:0.50656736" />
  <path
     d="m 219.30328,375.52152 a 0.87843336,0.87429442 0 0 0 0.87336,0.86924 h 3.8387 a 0.87843336,0.87429442 0 0 0 0.87336,-0.86924 v -0.77828 h -5.58542 z m 2.79271,-15.80806 c -3.47819,0 -6.28105,2.60267 -6.28105,5.8219 a 5.7580546,5.7309243 0 0 0 2.681,4.80104 v 1.88503 a 0.8682781,0.86418705 0 0 0 0.89874,0.83388 h 5.40262 a 0.8682781,0.86418705 0 0 0 0.89874,-0.83388 v -1.88503 a 5.7478994,5.7208169 0 0 0 2.68608,-4.80104 c 0,-3.21923 -2.80794,-5.8219 -6.28613,-5.8219 z"
     stroke-miterlimit="10"
     id="path43"
     inkscape:connector-curvature="0"
     style="fill:#ffffff;stroke:#ffffff;stroke-width:0.50656736;stroke-miterlimit:10" />
  <rect
     x="250.46989"
     y="367.37997"
     width="121.86359"
     height="1.3493446"
     id="rect45"
     style="opacity:0.3;fill:#f9a826;stroke-width:0.50656736" />
  <ellipse
     cx="348.01663"
     cy="368.05215"
     id="circle47"
     style="fill:#f9a826;stroke-width:0.50656736"
     rx="3.2141521"
     ry="3.1990077" />
  <rect
     x="250.46989"
     y="367.37997"
     width="97.856468"
     height="1.3493446"
     id="rect49"
     style="fill:#f9a826;stroke-width:0.50656736" />
  <path
     d="m 217.90693,402.01314 v 9.72337 h 2.79271 v 8.33865 l 5.58541,-11.1182 h -2.7927 l 2.7927,-6.94382 z"
     stroke-miterlimit="10"
     id="path51"
     inkscape:connector-curvature="0"
     style="fill:#ffffff;stroke:#ffffff;stroke-width:0.50656736;stroke-miterlimit:10" />
  <rect
     x="250.46989"
     y="410.37201"
     width="121.86359"
     height="1.3493446"
     id="rect53"
     style="opacity:0.3;fill:#f9a826;stroke-width:0.50656736" />
  <ellipse
     cx="288.10037"
     cy="411.04419"
     id="circle55"
     style="fill:#f9a826;stroke-width:0.50656736"
     rx="3.2141521"
     ry="3.1990077" />
  <rect
     x="250.46989"
     y="410.37201"
     width="37.630459"
     height="1.3493446"
     id="rect57"
     style="fill:#f9a826;stroke-width:0.50656736" />
  <ellipse
     cx="174.71136"
     cy="488.6391"
     rx="30.196783"
     ry="5.7814612"
     id="ellipse59"
     style="fill:#f9a826;stroke-width:0.50656736" />
  <ellipse
     cx="174.20868"
     cy="486.18292"
     rx="3.5137336"
     ry="4.5786753"
     id="ellipse61"
     style="fill:#3f3d56;stroke-width:0.50656736" />
  <ellipse
     cx="174.20868"
     cy="480.58344"
     rx="3.5137336"
     ry="4.5786753"
     id="ellipse63"
     style="fill:#3f3d56;stroke-width:0.50656736" />
  <ellipse
     cx="174.20868"
     cy="474.98895"
     rx="3.5137336"
     ry="4.5786753"
     id="ellipse65"
     style="fill:#3f3d56;stroke-width:0.50656736" />
  <ellipse
     cx="174.20868"
     cy="469.38947"
     rx="3.5137336"
     ry="4.5786753"
     id="ellipse67"
     style="fill:#3f3d56;stroke-width:0.50656736" />
  <ellipse
     cx="174.20868"
     cy="463.78992"
     rx="3.5137336"
     ry="4.5786753"
     id="ellipse69"
     style="fill:#3f3d56;stroke-width:0.50656736" />
  <ellipse
     cx="174.20868"
     cy="458.19037"
     rx="3.5137336"
     ry="4.5786753"
     id="ellipse71"
     style="fill:#3f3d56;stroke-width:0.50656736" />
  <ellipse
     cx="174.20868"
     cy="452.59088"
     rx="3.5137336"
     ry="4.5786753"
     id="ellipse73"
     style="fill:#3f3d56;stroke-width:0.50656736" />
  <path
     d="m 187.36487,414.28359 a 17.406183,17.32417 0 0 0 1.31003,-1.92041 l -9.24132,-1.51612 9.99281,0.0758 a 16.89334,16.813744 0 0 0 0.31989,-13.28119 l -13.39483,6.9236 12.359,-9.04616 a 16.842564,16.763207 0 1 0 -27.81537,18.75942 17.187844,17.10686 0 0 0 -1.91935,3.03224 l 11.99341,6.20092 -12.78552,-4.24007 a 16.852719,16.773314 0 0 0 2.71146,15.7373 16.837486,16.758153 0 1 0 26.47487,0 16.847642,16.768261 0 0 0 0,-20.72027 z"
     id="path75"
     inkscape:connector-curvature="0"
     style="fill:#f9a826;stroke-width:0.50656736" />
  <path
     d="m 157.29503,424.64372 a 16.756243,16.677293 0 0 0 3.60005,10.36014 16.837486,16.758153 0 1 0 26.47487,0 c 2.25447,-2.85029 -30.07492,-12.24012 -30.07492,-10.36014 z"
     id="path77"
     inkscape:connector-curvature="0"
     style="opacity:0.1;stroke-width:0.50656736" />
  <ellipse
     cx="108.62068"
     cy="438.46063"
     rx="46.683914"
     ry="8.9349861"
     id="ellipse79"
     style="fill:#f9a826;stroke-width:0.50656736" />
  <ellipse
     cx="109.39757"
     cy="434.66528"
     rx="5.433085"
     ry="7.0802689"
     id="ellipse81"
     style="fill:#3f3d56;stroke-width:0.50656736" />
  <ellipse
     cx="109.39757"
     cy="426.00824"
     rx="5.433085"
     ry="7.0802689"
     id="ellipse83"
     style="fill:#3f3d56;stroke-width:0.50656736" />
  <ellipse
     cx="109.39757"
     cy="417.35123"
     rx="5.433085"
     ry="7.0802689"
     id="ellipse85"
     style="fill:#3f3d56;stroke-width:0.50656736" />
  <ellipse
     cx="109.39757"
     cy="408.69418"
     rx="5.433085"
     ry="7.0802689"
     id="ellipse87"
     style="fill:#3f3d56;stroke-width:0.50656736" />
  <ellipse
     cx="109.39757"
     cy="400.04221"
     rx="5.433085"
     ry="7.0802689"
     id="ellipse89"
     style="fill:#3f3d56;stroke-width:0.50656736" />
  <ellipse
     cx="109.39757"
     cy="391.38516"
     rx="5.433085"
     ry="7.0802689"
     id="ellipse91"
     style="fill:#3f3d56;stroke-width:0.50656736" />
  <ellipse
     cx="109.39757"
     cy="382.72815"
     rx="5.433085"
     ry="7.0802689"
     id="ellipse93"
     style="fill:#3f3d56;stroke-width:0.50656736" />
  <path
     d="m 89.051424,323.49341 a 26.525642,26.40066 0 0 1 -2.031059,-2.96653 l 14.288505,-2.32977 -15.446213,0.11624 a 26.104197,25.981201 0 0 1 -0.50776,-20.53329 L 106.08187,308.4788 86.979741,294.49009 a 26.038187,25.915502 0 1 1 43.007699,29.00332 25.845236,25.723461 0 0 1 2.96535,4.72524 l -18.5385,9.60208 19.76729,-6.60522 a 26.048342,25.92561 0 0 1 -4.19414,24.32358 26.038187,25.915502 0 1 1 -40.930938,0 26.048342,25.92561 0 0 1 0,-32.04568 z"
     id="path95"
     inkscape:connector-curvature="0"
     style="fill:#f9a826;stroke-width:0.50656736" />
  <path
     d="m 135.57286,339.51373 a 25.94679,25.824536 0 0 1 -5.58542,16.02536 26.038187,25.915502 0 1 1 -40.930938,0 c -3.49342,-4.4119 46.516358,-18.93125 46.516358,-16.02536 z"
     id="path97"
     inkscape:connector-curvature="0"
     style="opacity:0.1;stroke-width:0.50656736" />
  <ellipse
     cx="447.84833"
     cy="495.21906"
     rx="50.268734"
     ry="10.612823"
     id="ellipse99"
     style="opacity:0.1;fill:#f9a826;stroke-width:0.50656736" />
  <path
     d="m 429.18793,496.442 a 2.9602697,2.9463218 0 0 0 0.19295,0.753 4.3210798,4.3007202 0 0 0 1.66547,2.29945 4.5343411,4.5129766 0 0 0 1.32019,0.50537 c 3.1126,0.7429 6.34706,0.50538 9.52567,0.82376 3.17861,0.31839 6.54509,1.14214 9.68308,0.25268 0.75149,-0.21225 1.52329,-0.60139 1.82795,-1.3645 a 0.81750158,0.81364978 0 0 0 0.0457,-0.14656 c 2.27986,0.29312 4.56988,0.50538 6.75327,-0.10612 0.74642,-0.21226 1.52329,-0.6014 1.82795,-1.36451 a 3.0973662,3.0827723 0 0 0 0.10663,-1.21795 c -0.0914,-2.12761 -0.19295,-4.28555 -0.84289,-6.30199 a 17.771774,17.688039 0 0 0 -0.86827,-2.12763 q -0.74642,-1.59191 -1.62485,-3.10803 l -0.17772,-0.3285 c 0.42652,0.18699 0.84289,0.38914 1.25418,0.60645 a 106.63064,106.12823 0 0 0 4.10782,-17.89524 63.226892,62.928986 0 0 0 -0.62963,-21.66532 30.999051,30.852993 0 0 1 -0.50777,-7.22177 c 0.20819,-4.8162 1.33035,-9.52627 2.44743,-14.20602 q 0.85305,-3.53761 1.70101,-7.1207 1.20848,-5.05373 2.42712,-10.14788 c 0.53823,-2.24891 1.07646,-4.54836 0.9089,-6.86296 a 18.025656,17.940724 0 0 0 -0.75149,-3.72965 43.220953,43.017309 0 0 0 -2.13262,-5.73093 0.9647534,0.96020774 0 0 0 0.71596,-0.14656 1.2237135,1.2179478 0 0 0 0.31989,-0.63171 l 1.27956,-4.58878 c 0.89875,-3.21417 1.79749,-6.45361 2.03106,-9.78907 0.27927,-3.77513 -0.2945,-7.58058 -0.41637,-11.34055 -0.1574,-4.91223 0.44176,-9.83961 0.12187,-14.74172 -0.0711,-1.06128 -0.18279,-2.11751 -0.30974,-3.16869 0.0558,-0.55591 0.0711,-1.11182 0.0863,-1.66772 0.0812,-2.73912 0.0508,-5.47319 -0.95968,-8.00005 a 11.170829,11.118195 0 0 0 -3.34616,-4.6191 c 0.0457,-0.22742 0.0965,-0.44979 0.14217,-0.67721 l 1.06631,-5.05372 c 1.17801,-5.60458 2.36618,-11.34562 1.69085,-17.04116 -0.60424,-5.05373 -2.98565,-10.18832 -7.01731,-12.88701 l -0.0355,-0.0252 -0.43159,-0.2729 -0.0762,-0.0455 c -0.13202,-0.0809 -0.26912,-0.15667 -0.40621,-0.22742 l -0.10155,-0.0556 c -0.16249,-0.091 -0.33513,-0.17688 -0.50777,-0.25268 a 16.045373,15.969772 0 0 0 -4.06212,-1.20785 l -0.55854,-0.0859 a 15.578229,15.504828 0 0 0 -1.6807,-0.17182 h -0.56362 a 11.62274,11.567977 0 0 0 -1.68071,0.10107 c -0.20817,0 -0.41128,0.0607 -0.61947,0.10108 l -0.60932,0.12634 a 25.70814,25.587011 0 0 1 -3.67621,0.76312 c -0.23357,0 -0.47222,0.0303 -0.70579,0.0354 -0.7058,0 -1.41159,-0.0455 -2.12247,-0.0859 -0.35035,0 -0.70579,-0.0303 -1.05615,-0.0303 a 8.3578109,8.3184312 0 0 0 -1.74163,0.15668 7.3422812,7.3076863 0 0 0 -2.74193,1.25837 11.455177,11.401204 0 0 0 -1.66547,1.47569 16.80702,16.72783 0 0 0 -1.1577,1.38472 c -0.16756,0.22237 -0.33005,0.44979 -0.50777,0.68731 l -0.23357,0.35882 c -0.14725,0.24763 -0.28943,0.50536 -0.42145,0.74795 a 9.647534,9.6020774 0 0 0 -0.50776,1.17246 5.6311134,5.6045812 0 0 0 -0.22849,3.27986 6.3572173,6.3272639 0 0 0 0.22342,0.68226 12.912463,12.851623 0 0 0 -1.39636,5.85727 c 0,5.5591 3.48326,10.24895 8.27149,11.7954 0.58393,1.07138 1.2948,2.43588 1.88888,3.75996 a 13.638567,13.574306 0 0 0 -3.24461,3.26471 c -2.97551,-0.16677 -5.91039,2.19331 -6.85483,5.16996 a 9.4444281,9.3999286 0 0 0 -0.36051,3.53761 c -0.61947,2.48643 -0.64994,5.17502 -0.70579,7.77263 -0.0863,4.09351 -0.29958,8.17693 -0.50777,12.26539 -0.20818,4.08846 -0.42145,8.14154 -0.63471,12.21485 -0.0609,1.16741 -0.12186,2.33987 -0.27419,3.49718 -0.74641,0.19709 -0.78196,1.21289 -0.69564,2.02149 0.23357,2.15794 0.6144,4.34115 0.85813,6.5092 a 10.800161,10.749274 0 0 0 -0.20819,4.08846 l 0.4316,0.19204 a 16.456662,16.379123 0 0 1 -0.60932,4.1289 1.4877513,1.4807414 0 0 1 -0.32497,0.66203 2.1986223,2.188263 0 0 1 0.67533,-0.16677 c -0.64486,2.11245 -1.1577,4.27545 -1.91427,6.35254 -0.39098,1.07138 -0.84797,2.12256 -1.1831,3.21921 a 30.303413,30.160632 0 0 0 -0.71086,3.16364 15.476676,15.403755 0 0 0 -0.26912,1.85977 7.8855901,7.8484354 0 0 0 2.67592,6.39802 c 0,0.4144 -0.0305,0.82375 -0.0305,1.23816 0,2.95643 0.43668,5.90275 0.33005,8.85412 -0.14218,3.97729 -0.85813,7.74231 -0.87844,11.72464 -0.066,11.01713 2.97043,21.78662 6.53494,32.14169 q 2.11738,6.15545 4.49372,12.19465 c 0.93428,2.38536 1.99043,5.05372 0.98506,7.3936 0.34021,-0.13645 0.67533,-0.2628 1.01554,-0.38408 a 10.663064,10.612823 0 0 1 -2.32557,3.53761 9.7897083,9.743582 0 0 1 -5.82914,2.74417 c -1.06123,0.11623 -2.15293,0.0556 -3.16338,0.4245 -1.01045,0.36893 -1.92951,1.33924 -1.82795,2.45612 z m 12.97847,-57.16774 a 49.187192,48.955436 0 0 1 6.23535,-16.11128 l 0.0305,0.3285 c 0.16248,1.6273 0.46206,3.2546 0.78703,4.87684 0.6804,3.41632 1.4776,6.82759 1.35573,10.25906 a 58.71794,58.441278 0 0 0 0.63979,10.87562 17.309707,17.228149 0 0 0 1.01553,4.11374 c 0.33512,0.78837 0.7718,1.51611 1.01553,2.34492 a 11.257149,11.204109 0 0 1 0.40621,2.9059 105.0718,104.57674 0 0 1 -1.48267,24.20228 c -0.35036,0 -0.57378,0.0556 -0.57885,0.10108 a 11.008345,10.956476 0 0 1 -1.38621,3.87115 l -0.0609,-0.11118 c -0.12187,-0.21226 -0.24881,-0.45483 -0.38083,-0.69741 l 0.42144,0.0657 c -1.16277,-2.49653 -1.05615,-5.40748 -1.10692,-8.18703 a 75.733144,75.376314 0 0 0 -1.15263,-11.24454 65.704785,65.395203 0 0 0 -5.15382,-16.26288 12.795677,12.735388 0 0 1 -1.01552,-3.42643 23.154082,23.044987 0 0 1 0.41128,-7.90402 z m 20.94531,-60.13933 a 8.6320043,8.5913326 0 0 0 -0.6144,-0.73784 c -0.50777,-0.54075 -1.11708,-1.16742 -0.96475,-1.90526 a 1.8736527,1.8648246 0 0 1 0.42652,-0.77827 11.170829,11.118195 0 0 1 1.35066,-1.40999 l 0.16248,-0.14151 q -0.18279,2.47128 -0.36051,4.95771 z"
     id="path101"
     style="fill:url(#b5ddeed3-b78d-400e-805e-1392ba69a239);stroke-width:0.50656736"
     inkscape:connector-curvature="0" />
  <path
     d="m 470.51492,342.45499 0.55854,4.29062 c 0.18788,1.45547 0.37575,2.90589 0.4773,4.36642 0.3402,4.86168 -0.28942,9.74358 -0.12694,14.61537 0.13202,3.74986 0.73118,7.49467 0.44176,11.23949 -0.25896,3.30513 -1.20341,6.5193 -2.14785,9.70315 l -1.3405,4.54835 a 1.2084806,1.2027866 0 0 1 -0.33512,0.62666 1.1830923,1.1775179 0 0 1 -0.85812,0.13645 l -5.95101,-0.50538 c 0.38082,-1.73847 0.80227,-3.5376 1.01553,-5.32157 0.16248,-1.39482 0.25896,-2.79976 0.36051,-4.20469 0.31482,-4.37653 0.67533,-8.75306 1.01553,-13.13968 l 0.63471,-7.68167 c 0.26911,-3.33546 0.54838,-6.68608 1.39127,-9.92552 a 19.848532,19.755012 0 0 1 4.86439,-8.748 z"
     id="path103"
     inkscape:connector-curvature="0"
     style="fill:#f9a826;stroke-width:0.50656736" />
  <path
     d="m 470.51492,342.45499 0.55854,4.29062 c 0.18788,1.45547 0.37575,2.90589 0.4773,4.36642 0.3402,4.86168 -0.28942,9.74358 -0.12694,14.61537 0.13202,3.74986 0.73118,7.49467 0.44176,11.23949 -0.25896,3.30513 -1.20341,6.5193 -2.14785,9.70315 l -1.3405,4.54835 a 1.2084806,1.2027866 0 0 1 -0.33512,0.62666 1.1830923,1.1775179 0 0 1 -0.85812,0.13645 l -5.95101,-0.50538 c 0.38082,-1.73847 0.80227,-3.5376 1.01553,-5.32157 0.16248,-1.39482 0.25896,-2.79976 0.36051,-4.20469 0.31482,-4.37653 0.67533,-8.75306 1.01553,-13.13968 l 0.63471,-7.68167 c 0.26911,-3.33546 0.54838,-6.68608 1.39127,-9.92552 a 19.848532,19.755012 0 0 1 4.86439,-8.748 z"
     id="path105"
     inkscape:connector-curvature="0"
     style="opacity:0.1;stroke-width:0.50656736" />
  <path
     d="m 459.91279,488.53292 a 18.183063,18.09739 0 0 1 0.91398,2.11246 c 0.6804,1.99622 0.78195,4.139 0.88351,6.2464 a 3.0465898,3.0322351 0 0 1 -0.11171,1.20784 c -0.29451,0.75806 -1.1374,1.14215 -1.92443,1.34934 -3.29539,0.88441 -6.76851,0.0556 -10.1553,-0.24763 -3.38679,-0.30322 -6.73296,-0.0808 -10.00297,-0.81365 a 5.1081155,5.0840475 0 0 1 -1.38619,-0.48009 4.3210798,4.3007202 0 0 1 -1.7518,-2.27419 2.985658,2.9715904 0 0 1 -0.19802,-0.74795 c -0.10664,-1.11182 0.86319,-2.07202 1.91935,-2.43589 1.05615,-0.36387 2.20878,-0.30828 3.32078,-0.41946 a 10.459958,10.410674 0 0 0 9.26163,-8.69746 c 0.0406,-0.24259 5.50417,-0.096 6.09318,0.21731 0.67025,0.36893 1.07646,1.28364 1.45728,1.90525 q 0.89875,1.50096 1.68071,3.07772 z"
     id="path107"
     inkscape:connector-curvature="0"
     style="fill:#a26565;stroke-width:0.50656736" />
  <path
     d="m 459.91279,488.53292 a 18.183063,18.09739 0 0 1 0.91398,2.11246 c 0.6804,1.99622 0.78195,4.139 0.88351,6.2464 a 3.0465898,3.0322351 0 0 1 -0.11171,1.20784 c -0.29451,0.75806 -1.1374,1.14215 -1.92443,1.34934 -3.29539,0.88441 -6.76851,0.0556 -10.1553,-0.24763 -3.38679,-0.30322 -6.73296,-0.0808 -10.00297,-0.81365 a 5.1081155,5.0840475 0 0 1 -1.38619,-0.48009 4.3210798,4.3007202 0 0 1 -1.7518,-2.27419 2.985658,2.9715904 0 0 1 -0.19802,-0.74795 c -0.10664,-1.11182 0.86319,-2.07202 1.91935,-2.43589 1.05615,-0.36387 2.20878,-0.30828 3.32078,-0.41946 a 10.459958,10.410674 0 0 0 9.26163,-8.69746 c 0.0406,-0.24259 5.50417,-0.096 6.09318,0.21731 0.67025,0.36893 1.07646,1.28364 1.45728,1.90525 q 0.89875,1.50096 1.68071,3.07772 z"
     id="path109"
     inkscape:connector-curvature="0"
     style="opacity:0.1;stroke-width:0.50656736" />
  <path
     d="m 450.84918,490.14001 a 17.264009,17.182666 0 0 1 0.91398,2.1074 c 0.68548,2.02149 0.78704,4.139 0.88351,6.2464 a 2.9602697,2.9463218 0 0 1 -0.11171,1.20785 c -0.28942,0.75805 -1.13231,1.14214 -1.91935,1.35439 -3.29539,0.87935 -6.77358,0.0506 -10.15529,-0.25268 -3.38172,-0.30323 -6.73805,-0.0809 -10.00298,-0.81365 a 4.8846989,4.8616836 0 0 1 -1.38619,-0.50537 4.3007692,4.2805052 0 0 1 -1.75179,-2.27418 2.985658,2.9715904 0 0 1 -0.19803,-0.74796 c -0.10664,-1.10675 0.8632,-2.07202 1.91935,-2.43589 1.05615,-0.36387 2.20878,-0.30322 3.32078,-0.41946 a 10.465036,10.415727 0 0 0 9.26163,-8.6924 c 0.0406,-0.24258 5.50417,-0.10108 6.09318,0.21225 0.67533,0.36893 1.08155,1.28364 1.46237,1.90526 0.57885,1.0259 1.14755,2.05686 1.67054,3.10804 z"
     id="path111"
     inkscape:connector-curvature="0"
     style="fill:#a26565;stroke-width:0.50656736" />
  <path
     d="m 427.22288,436.45428 c -0.0711,10.9211 3.11768,21.59457 6.85991,31.83847 q 2.224,6.09479 4.71713,12.08346 c 0.98507,2.36514 2.09707,4.99308 1.04092,7.3279 3.04659,-1.15225 6.14395,-1.82945 9.34795,-1.29881 -1.21863,-2.47632 -1.10185,-5.35695 -1.1577,-8.08596 a 71.239423,70.903766 0 0 0 -1.19833,-11.14346 62.45509,62.160819 0 0 0 -5.47878,-16.11633 12.338689,12.280552 0 0 1 -1.06123,-3.39611 c -0.41636,-2.59762 -0.0914,-5.26597 0.45191,-7.83833 a 46.953026,46.731797 0 0 1 6.55017,-15.96976 l 0.0305,0.32343 a 47.359237,47.136094 0 0 0 0.82257,4.83642 c 0.71596,3.38094 1.55377,6.76694 1.42682,10.16809 a 55.26006,54.999691 0 0 0 0.67025,10.7796 16.466818,16.389231 0 0 0 1.0917,4.07331 c 0.35036,0.78332 0.80734,1.51611 1.08154,2.32976 a 10.663064,10.612823 0 0 1 0.42652,2.88062 c 0.40621,8.22241 0,16.57117 -1.68578,24.63186 2.82825,-0.22236 5.6565,0.59128 8.18517,1.85472 a 100.81165,100.33666 0 0 0 4.31601,-17.73858 59.21555,58.936543 0 0 0 -0.6601,-21.45812 28.648099,28.513117 0 0 1 -0.53315,-7.15102 c 0.21834,-4.77576 1.39635,-9.44541 2.56929,-14.08473 l 1.78733,-7.07521 q 1.26941,-5.05373 2.53883,-10.06197 c 0.56361,-2.22869 1.13231,-4.50792 0.95459,-6.80232 a 16.959349,16.879442 0 0 0 -0.79211,-3.69932 41.479319,41.283881 0 0 0 -5.62096,-11.44163 c -9.78463,0.54579 -19.68604,-0.36387 -29.45036,-1.11182 a 1.9752057,1.965899 0 0 0 -1.38113,0.23247 1.9548951,1.9456842 0 0 0 -0.55854,1.25332 l -3.67114,20.72027 a 52.299791,52.05337 0 0 0 -1.01553,8.74295 c 0,2.93115 0.45699,5.85222 0.34528,8.77832 -0.17771,3.9419 -0.92921,7.67155 -0.94952,11.61851 z"
     id="path113"
     inkscape:connector-curvature="0"
     style="fill:#454b69;stroke-width:0.50656736" />
  <path
     d="m 447.34053,424.17878 a 47.359237,47.136094 0 0 0 0.82258,4.83642 c 2.12754,-3.66395 4.42263,-7.23693 6.3826,-10.99185 0.50777,-0.96526 0.98506,-1.94569 1.46745,-2.92611 l 1.44712,-2.93116 c 0.26912,-0.55085 0.53823,-1.10171 0.78196,-1.66267 a 12.069573,12.012705 0 0 0 0.9089,-2.52687 c -0.71087,-0.1314 -2.46773,1.77891 -2.99581,2.27924 a 40.946166,40.75324 0 0 0 -3.04659,3.35566 36.970366,36.796173 0 0 0 -3.22939,4.14406 20.249667,20.154256 0 0 0 -2.53882,6.42328 z"
     id="path115"
     inkscape:connector-curvature="0"
     style="opacity:0.1;stroke-width:0.50656736" />
  <path
     d="m 439.16551,323.65514 c 0,0 5.43309,8.6166 4.42771,10.42078 -1.00537,1.80418 17.11168,-1.60204 17.11168,-1.60204 0,0 -9.86587,-8.6166 -8.85542,-12.22495 1.01046,-3.60836 -12.68397,3.40621 -12.68397,3.40621 z"
     id="path117"
     inkscape:connector-curvature="0"
     style="fill:#ee8e9e;stroke-width:0.50656736" />
  <ellipse
     cx="443.99438"
     cy="314.0379"
     id="circle119"
     style="fill:#ee8e9e;stroke-width:0.50656736"
     rx="12.282835"
     ry="12.224961" />
  <path
     d="m 438.98272,332.69119 a 12.470707,12.411949 0 0 1 5.16397,-4.1491 18.472489,18.385453 0 0 1 3.67114,-0.89956 l 4.89993,-0.85914 c 1.19833,-0.21225 2.48297,-0.40935 3.60005,0.0809 a 5.9002289,5.8724287 0 0 1 1.5233,1.11687 c 1.70101,1.57171 3.35125,3.29503 5.48894,4.20471 0.58393,0.24763 1.19324,0.42956 1.77717,0.6772 2.39158,1.01074 4.17891,3.16363 5.18936,5.55909 1.06631,2.49654 1.09678,5.2104 1.01554,7.92424 a 13.994002,13.928067 0 0 1 -0.27928,2.78965 18.061199,17.9761 0 0 1 -0.92921,2.5572 47.003802,46.782334 0 0 0 -1.68578,5.41759 q -1.90411,7.25209 -3.16845,14.6558 a 5.5194051,5.4933993 0 0 1 -0.61439,2.02149 7.2915045,7.2571491 0 0 1 -1.69594,1.62225 10.591977,10.542071 0 0 0 -1.41667,1.39988 1.8381092,1.8294485 0 0 0 -0.45191,0.76817 c -0.1574,0.72773 0.50777,1.35439 1.01554,1.88503 a 9.1702354,9.1270278 0 0 1 2.29509,3.97729 1.6096149,1.6020309 0 0 1 0.36559,1.09665 1.9295069,1.9204156 0 0 0 -0.11678,0.86924 1.9701281,1.9608454 0 0 0 0.46206,0.71258 2.7063873,2.6936356 0 0 1 0.50776,2.16299 34.472163,34.309741 0 0 1 -12.02387,2.79977 c -1.01553,0.0506 -2.03106,0.0506 -3.04659,0.17182 -0.72102,0.091 -1.43189,0.23753 -2.15292,0.32345 a 23.24548,23.135954 0 0 1 -3.14814,0.0809 c -5.46863,-0.11119 -11.09467,-0.24764 -16.11647,-2.40558 -0.47222,-2.56224 0.54839,-5.17502 1.18818,-7.70188 1.01553,-4.04298 1.26941,-8.18198 2.03105,-12.26034 0.50777,-2.78459 1.26942,-5.52877 1.70102,-8.33359 0.4316,-2.80481 0.53315,-5.71071 -0.24373,-8.43971 -0.68548,-2.41569 -0.89366,-4.88191 -1.60454,-7.29254 -0.71087,-2.41062 -1.20848,-5.0234 -0.40621,-7.40876 0.99522,-2.94126 4.07735,-5.29125 7.20519,-5.12448 z"
     id="path121"
     inkscape:connector-curvature="0"
     style="fill:#f9a826;stroke-width:0.50656736" />
  <path
     d="m 432.95047,307.55397 c -0.59916,-2.16805 0.57885,-4.42706 1.98028,-6.19081 1.5233,-1.89515 3.46296,-3.60331 5.84438,-4.07836 1.93459,-0.38914 3.94025,0.0808 5.91039,-0.0758 1.74163,-0.13645 3.41725,-0.76311 5.14873,-1.01074 a 16.309411,16.232565 0 0 1 4.71206,0.17688 17.898715,17.814382 0 0 1 4.29061,1.19268 c 5.22998,2.30955 8.29181,8.00004 9.00267,13.64506 0.71087,5.64501 -0.50776,11.3355 -1.7721,16.88954 l -1.12216,5.02341 c -1.16785,5.2306 -2.33572,10.48142 -2.64545,15.82827 -0.30974,5.34684 0.26912,10.83518 2.47789,15.71707 a 33.964398,33.804368 0 0 1 -15.60362,-17.5819 c -0.79211,-2.06697 -1.38112,-4.2148 -2.26463,-6.2464 -0.75657,-1.74859 -1.7264,-3.40621 -2.39665,-5.19018 a 16.939039,16.859227 0 0 1 -1.07138,-6.30199 c 0.0406,-1.6172 0.30973,-3.22428 0.26403,-4.84147 -0.0457,-1.6172 -0.46206,-3.30008 -1.58422,-4.47255 -1.01553,-1.03602 -2.41189,-1.51611 -3.69653,-2.18826 a 15.390356,15.317841 0 0 1 -5.17413,-4.29567 c -0.80734,-1.05117 -0.85304,-1.51612 -1.05615,-2.7088 -0.2031,-1.19268 -0.9292,-2.14278 -1.24402,-3.28997 z"
     id="path123"
     inkscape:connector-curvature="0"
     style="fill:#454b69;stroke-width:0.50656736" />
  <path
     d="m 432.93523,399.38521 c -0.12693,1.25838 0.10156,2.52686 -0.17263,3.77514 -0.20819,0.92988 -0.69056,1.76879 -0.97491,2.67846 a 12.795677,12.735388 0 0 0 -0.4316,3.21923 c -0.0406,0.90967 0.0305,2.02149 0.84289,2.446 0.35543,0.18699 0.78196,0.18699 1.15262,0.34871 0.37067,0.16171 0.68549,0.60139 0.47222,0.94505 -0.21326,0.34365 -0.57885,0.28805 -0.91397,0.35376 -0.33512,0.0657 -0.69564,0.40935 -0.50777,0.6873 a 0.57885206,0.57612467 0 0 0 0.29451,0.18699 3.5949759,3.5780374 0 0 1 0.9546,0.45484 0.97490873,0.97031525 0 0 1 0.39097,0.92483 0.5737744,0.57107095 0 0 1 -0.8175,0.37397 2.5388248,2.5268626 0 0 1 0.23865,1.01075 c -1.29988,0.55591 -2.75716,-0.17182 -3.9758,-0.8743 a 14.973989,14.903436 0 0 1 -1.52329,-0.97031 7.6164746,7.5805878 0 0 1 -2.96535,-6.45361 15.126318,15.055047 0 0 1 0.28942,-1.84461 27.886451,27.755059 0 0 1 0.74642,-3.13836 c 0.35036,-1.08655 0.82765,-2.12257 1.23895,-3.1889 0.87336,-2.26913 1.43697,-4.64438 2.22909,-6.94382 a 1.0561511,1.0511749 0 0 1 0.38082,-0.60139 1.071384,1.066336 0 0 1 0.56362,-0.10613 9.2362443,9.1927259 0 0 1 2.64545,0.24257 c 0.50777,0.15162 1.37605,0.50538 1.6147,1.01075 0.23865,0.50538 -0.14218,0.92988 -0.37067,1.34935 a 11.36378,11.310237 0 0 0 -1.40144,4.11373 z"
     id="path125"
     inkscape:connector-curvature="0"
     style="fill:#ee8e9e;stroke-width:0.50656736" />
  <path
     d="m 433.76289,337.9774 a 3.7219171,3.7043805 0 0 0 -0.64993,0.89956 c -1.74672,3.15858 -1.76703,6.93371 -1.84827,10.53702 -0.0914,4.04297 -0.31481,8.08595 -0.53823,12.1542 l -0.66517,12.12894 c -0.066,1.15731 -0.12695,2.31461 -0.29451,3.46181 -0.78195,0.19709 -0.81242,1.20784 -0.7261,2.02149 0.56362,4.94254 1.95998,10.03164 0.50776,14.7872 a 1.492829,1.4857952 0 0 1 -0.3402,0.65698 3.9656443,3.9469594 0 0 1 2.26971,-0.0303 c 0.72611,0.15161 1.42682,0.41947 2.158,0.58624 0.92413,0.2072 1.97013,0.29817 2.59976,1.01073 a 50.390594,50.153169 0 0 0 1.70101,-6.52941 c 0.34528,-2.02148 0.44176,-4.10362 1.26434,-5.9735 0.33004,-0.75301 0.77688,-1.45041 1.18309,-2.1731 2.12753,-3.78019 3.17353,-8.05059 4.19413,-12.26539 a 17.990113,17.905348 0 0 0 0.32498,-6.09479 21.057013,20.957798 0 0 1 -0.25389,-2.80482 21.651098,21.549084 0 0 1 0.39099,-2.95138 19.878998,19.785334 0 0 0 -0.59409,-8.54584 c -0.76165,-2.57235 -1.4319,-5.28115 -3.04659,-7.44414 -1.61469,-2.163 -4.94056,-3.39611 -7.63679,-3.43148 z"
     id="path127"
     inkscape:connector-curvature="0"
     style="opacity:0.1;stroke-width:0.50656736" />
  <path
     d="m 433.15865,337.5731 a 3.752383,3.7347029 0 0 0 -0.64993,0.90461 c -1.74672,3.15353 -1.76703,6.93371 -1.84827,10.53702 -0.0914,4.04298 -0.31481,8.08596 -0.53823,12.12894 l -0.66517,12.12894 c -0.066,1.1573 -0.12695,2.31461 -0.29451,3.4618 -0.78195,0.19709 -0.81242,1.20785 -0.72103,2.02149 0.55855,4.94255 1.9549,10.02659 0.50777,14.7872 a 1.492829,1.4857952 0 0 1 -0.3402,0.65699 3.9656443,3.9469594 0 0 1 2.26971,-0.0303 c 0.72611,0.15161 1.42682,0.41946 2.158,0.58118 0.92413,0.21226 1.97013,0.29817 2.59975,1.01075 a 49.867597,49.632635 0 0 0 1.70102,-6.53447 c 0.34528,-2.02149 0.44176,-4.09857 1.26433,-5.96845 a 24.514892,24.399385 0 0 1 1.1831,-2.1731 c 2.13261,-3.78019 3.17353,-8.05564 4.19413,-12.27044 a 17.985035,17.900295 0 0 0 0.32498,-6.0948 13.201889,13.139685 0 0 1 0.13709,-5.75619 19.85361,19.760066 0 0 0 -0.59408,-8.5408 c -0.76165,-2.57235 -1.4319,-5.28114 -3.04659,-7.44414 -1.61469,-2.16299 -4.94564,-3.36577 -7.64187,-3.4062 z"
     id="path129"
     inkscape:connector-curvature="0"
     style="fill:#f9a826;stroke-width:0.50656736" />
  <g
     id="g135"
     transform="matrix(0.50776496,0,0,0.50537252,-3.9627107e-4,94.175592)"
     style="opacity:0.1">
    <path
       d="m 891.56,452.69 c 3,-3.75 6.82,-7.13 11.51,-8.07 3.81,-0.77 7.76,0.16 11.64,-0.15 3.43,-0.27 6.73,-1.51 10.14,-2 a 32.12,32.12 0 0 1 9.28,0.35 35.25,35.25 0 0 1 8.45,2.36 25.09,25.09 0 0 1 4.17,2.37 35.56,35.56 0 0 0 -7.47,-2 32,32 0 0 0 -9.27,-0.35 c -3.42,0.44 -6.71,1.67 -10.15,1.94 -3.87,0.31 -7.82,-0.61 -11.64,0.15 -4.69,0.94 -8.53,4.33 -11.5,8.08 -2.77,3.48 -5.08,7.95 -3.91,12.25 0.62,2.26 2.06,4.24 2.45,6.57 0.39,2.33 0.49,3.28 2.09,5.36 a 30.38,30.38 0 0 0 7.34,6.83 c -0.77,-0.36 -1.56,-0.72 -2.31,-1.11 a 30.31,30.31 0 0 1 -10.19,-8.5 c -1.59,-2.08 -1.68,-3 -2.08,-5.36 -0.4,-2.36 -1.83,-4.3 -2.45,-6.57 -1.18,-4.19 1.14,-8.66 3.9,-12.15 z"
       transform="translate(-35,-42.72)"
       id="path131"
       inkscape:connector-curvature="0" />
    <path
       d="m 909.66,489.7 a 10,10 0 0 0 -1.35,-1.17 c 2.31,1.12 4.74,2.1 6.51,4 2.21,2.31 3,5.65 3.12,8.85 0.12,3.2 -0.45,6.38 -0.52,9.57 a 33.41,33.41 0 0 0 2.11,12.48 c 1.32,3.53 3.23,6.8 4.72,10.27 1.73,4 2.89,8.26 4.45,12.35 a 67,67 0 0 0 25.41,31.62 c 0.06,0.13 0.11,0.27 0.17,0.4 a 66.89,66.89 0 0 1 -30.73,-34.79 c -1.56,-4.09 -2.72,-8.34 -4.46,-12.36 -1.49,-3.46 -3.4,-6.74 -4.72,-10.27 a 33.36,33.36 0 0 1 -2.11,-12.47 c 0.08,-3.2 0.61,-6.38 0.52,-9.58 -0.09,-3.2 -0.91,-6.6 -3.12,-8.9 z"
       transform="translate(-35,-42.72)"
       id="path133"
       inkscape:connector-curvature="0" />
  </g>
  <rect
     x="62.454693"
     y="155.71985"
     width="41.636726"
     height="29.311607"
     rx="4.6460495"
     id="rect137"
     style="opacity:0.1;fill:#f9a826;stroke-width:0.50656736" />
  <rect
     x="104.09142"
     y="207.26787"
     width="41.636726"
     height="29.311607"
     rx="4.6460495"
     id="rect139"
     style="opacity:0.1;fill:#f9a826;stroke-width:0.50656736" />
  <rect
     x="450.38715"
     y="160.77357"
     width="41.636726"
     height="29.311607"
     rx="4.6460495"
     id="rect141"
     style="opacity:0.1;fill:#f9a826;stroke-width:0.50656736" />
</svg>
