<?xml version="1.0" encoding="UTF-8" standalone="no"?>
<svg
   xmlns:dc="http://purl.org/dc/elements/1.1/"
   xmlns:cc="http://creativecommons.org/ns#"
   xmlns:rdf="http://www.w3.org/1999/02/22-rdf-syntax-ns#"
   xmlns:svg="http://www.w3.org/2000/svg"
   xmlns="http://www.w3.org/2000/svg"
   xmlns:sodipodi="http://sodipodi.sourceforge.net/DTD/sodipodi-0.dtd"
   xmlns:inkscape="http://www.inkscape.org/namespaces/inkscape"
   id="a925cca1-fa72-4afa-8f48-18ebd70d8ee6"
   data-name="Layer 1"
   width="573.87543"
   height="600"
   viewBox="0 0 430.03198 449.51075"
   version="1.1"
   sodipodi:docname="ais-privacy.svg"
   inkscape:version="0.92.3 (2405546, 2018-03-11)">
  <metadata
     id="metadata95">
    <rdf:RDF>
      <cc:Work
         rdf:about="">
        <dc:format>image/svg+xml</dc:format>
        <dc:type
           rdf:resource="http://purl.org/dc/dcmitype/StillImage" />
        <dc:title>virtual_assistant</dc:title>
      </cc:Work>
    </rdf:RDF>
  </metadata>
  <defs
     id="defs93" />
  <sodipodi:namedview
     pagecolor="#ffffff"
     bordercolor="#666666"
     borderopacity="1"
     objecttolerance="10"
     gridtolerance="10"
     guidetolerance="10"
     inkscape:pageopacity="0"
     inkscape:pageshadow="2"
     inkscape:window-width="1920"
     inkscape:window-height="1015"
     id="namedview91"
     showgrid="false"
     viewbox-height="800"
     inkscape:zoom="0.29467927"
     inkscape:cx="383"
     inkscape:cy="198.98366"
     inkscape:window-x="0"
     inkscape:window-y="0"
     inkscape:window-maximized="1"
     inkscape:current-layer="a925cca1-fa72-4afa-8f48-18ebd70d8ee6" />
  <title
     id="title2">virtual_assistant</title>
  <rect
     y="430.21127"
     width="430.03198"
     height="1.1227989"
     id="rect4"
     x="0"
     style="fill:#3f3d56;stroke-width:0.56139946" />
  <rect
     x="396.44412"
     y="417.45691"
     width="13.115042"
     height="13.115042"
     id="rect6"
     style="fill:#f9a826;stroke-width:0.56139946" />
  <rect
     x="-222.38943"
     y="361.74768"
     width="13.115042"
     height="13.115042"
     transform="rotate(-38.97687)"
     id="rect8"
     style="fill:#f9a826;stroke-width:0.56139946" />
  <rect
     x="214.45461"
     y="51.062443"
     width="1.1227989"
     height="184.13901"
     id="rect10"
     style="fill:#3f3d56;stroke-width:0.56139946" />
  <rect
     x="277.89273"
     y="68.465828"
     width="74.104721"
     height="1.1227989"
     id="rect12"
     style="fill:#3f3d56;stroke-width:0.56139946" />
  <rect
     x="78.034531"
     y="68.465828"
     width="74.104721"
     height="1.1227989"
     id="rect14"
     style="fill:#3f3d56;stroke-width:0.56139946" />
  <path
     d="M 78.264788,10.592342 77.804261,9.5682258 C 106.38327,-3.2877659 131.49219,-3.275982 152.43338,9.6019423 l -0.58826,0.9566807 c -20.60484,-12.6715135 -45.3607,-12.6597241 -73.580332,0.03371 z"
     id="path16"
     inkscape:connector-curvature="0"
     style="fill:#3f3d56;stroke-width:0.56139946" />
  <path
     d="m 275.87739,10.592342 -0.46053,-1.0241162 c 28.57929,-12.8557166 53.68767,-12.8439328 74.62885,0.033717 l -0.58772,0.9566812 c -20.60566,-12.671785 -45.36041,-12.6605458 -73.5806,0.03372 z"
     id="path18"
     inkscape:connector-curvature="0"
     style="fill:#3f3d56;stroke-width:0.56139946" />
  <circle
     cx="115.0869"
     cy="51.062443"
     r="17.403383"
     id="circle20"
     style="fill:#3f3d56;stroke-width:0.56139946" />
  <circle
     cx="314.9451"
     cy="51.062443"
     r="17.403383"
     id="circle22"
     style="fill:#3f3d56;stroke-width:0.56139946" />
  <circle
     cx="38.175167"
     cy="180.7457"
     r="32.561169"
     id="circle24"
     style="fill:#f9a826;stroke-width:0.56139946" />
  <circle
     cx="391.85684"
     cy="180.7457"
     r="32.561169"
     id="circle26"
     style="fill:#f9a826;stroke-width:0.56139946" />
  <path
     d="m 220.37449,347.85524 c -2.64909,0 -5.40403,-0.0943 -8.20278,-0.27958 a 131.14668,131.14668 0 0 1 -17.16408,-2.35141 c -46.1592,-9.4166 -79.97282,-41.36592 -80.3089,-41.68774 l 0.77631,-0.8114 c 0.33387,0.31962 33.92437,32.04911 79.7571,41.39938 a 130.04593,130.04593 0 0 0 17.01522,2.33057 c 3.05974,0.2034 6.06794,0.29934 8.93964,0.27411 a 115.65548,115.65548 0 0 0 17.87871,-1.49176 c 27.11383,-4.42375 52.50784,-18.72189 75.47587,-42.4964 l 0.80701,0.7796 c -23.13963,23.95322 -48.74416,38.36154 -76.10197,42.82535 a 116.81451,116.81451 0 0 1 -18.05195,1.50602 c -0.27193,0.002 -0.54605,0.003 -0.82018,0.003 z"
     id="path28"
     inkscape:connector-curvature="0"
     style="fill:#3f3d56;stroke-width:0.56139946" />
  <path
     d="m 38.175162,213.86828 a 38.175162,38.175162 0 1 1 38.175163,-38.17517 38.218547,38.218547 0 0 1 -38.175163,38.17517 z m 0,-75.22753 a 37.052363,37.052363 0 1 0 37.052363,37.05236 37.094289,37.094289 0 0 0 -37.052363,-37.05236 z"
     id="path30"
     inkscape:connector-curvature="0"
     style="fill:#3f3d56;stroke-width:0.56139946" />
  <path
     d="m 391.85681,213.86828 a 38.175162,38.175162 0 1 1 38.17516,-38.17517 38.218547,38.218547 0 0 1 -38.17516,38.17517 z m 0,-75.22753 a 37.052363,37.052363 0 1 0 37.05236,37.05236 37.094289,37.094289 0 0 0 -37.05236,-37.05236 z"
     id="path32"
     inkscape:connector-curvature="0"
     style="fill:#3f3d56;stroke-width:0.56139946" />
  <circle
     cx="197.05119"
     cy="237.44705"
     r="5.0525951"
     id="circle34"
     style="fill:#3f3d56;stroke-width:0.56139946" />
  <circle
     cx="232.98077"
     cy="237.44705"
     r="5.0525951"
     id="circle36"
     style="fill:#3f3d56;stroke-width:0.56139946" />
  <ellipse
     cx="215.01599"
     cy="382.28812"
     rx="14.034986"
     ry="5.0525951"
     id="ellipse38"
     style="fill:#f2f2f2;stroke-width:0.56139946" />
  <path
     d="m 332.59596,328.57591 c -5.75165,-9.71852 -17.13084,-10.17144 -17.13084,-10.17144 0,0 -11.08836,-1.41796 -18.20149,13.38345 -6.63,13.79614 -15.78024,27.1166 -1.47311,30.34617 l 2.58429,-8.04344 1.60042,8.64226 a 55.979036,55.979036 0 0 0 6.1215,0.10462 c 15.32178,-0.49467 29.91345,0.14473 29.44362,-5.35336 -0.62459,-7.30894 2.58985,-19.55711 -2.94439,-28.90826 z"
     id="path40"
     inkscape:connector-curvature="0"
     style="fill:#2f2e41;stroke-width:0.56139946" />
  <path
     d="m 294.97361,413.68558 a 22.688189,22.688189 0 0 1 -0.73369,3.15843 c -0.35991,1.01206 -0.91559,1.94806 -1.24467,2.97054 -1.04898,3.25928 0.40521,6.89332 2.72778,9.40908 a 15.353837,15.353837 0 0 0 7.48586,4.44512 30.542112,30.542112 0 0 0 6.43311,0.67603 c 5.97915,0.20275 12.11213,0.38414 17.77773,-1.5374 a 30.887984,30.887984 0 0 0 5.16495,-2.34641 3.8669194,3.8669194 0 0 0 1.34021,-1.05524 3.6880013,3.6880013 0 0 0 0.48362,-2.16483 c -0.0127,-2.53472 -0.52659,-5.05652 -0.40457,-7.58833 0.0676,-1.40236 0.33003,-2.80362 0.20084,-4.20168 a 7.7512421,7.7512421 0 0 0 -5.92389,-6.67692 16.09027,16.09027 0 0 0 -4.91048,2.7e-4 125.20218,125.20218 0 0 1 -12.77973,0.57143 c -4.35965,-0.0279 -8.69237,-0.69333 -13.03031,-0.76283 -1.28286,-0.0206 -1.25694,0.37495 -1.66536,1.61651 a 30.244721,30.244721 0 0 0 -0.9214,3.48623 z"
     id="path42"
     inkscape:connector-curvature="0"
     style="fill:#2f2e41;stroke-width:0.56139946" />
  <path
     d="m 307.34593,351.09722 a 7.610415,7.610415 0 0 1 -1.0952,3.13562 c -0.75844,1.0372 -1.9951,1.62984 -2.81106,2.62245 -1.22816,1.49411 -1.29865,3.59654 -1.30371,5.53062 -0.004,1.78173 0.0315,3.68213 1.02512,5.16109 a 9.0196794,9.0196794 0 0 0 2.58494,2.27903 c 3.72616,2.51108 7.75264,5.06726 12.24517,5.15007 1.86143,0.0343 3.8573,-0.44639 5.08209,-1.84852 a 7.6305417,7.6305417 0 0 0 1.23046,-2.19523 29.150806,29.150806 0 0 0 2.06348,-8.87431 10.420135,10.420135 0 0 0 -0.39281,-4.26303 c -0.54576,-1.52166 -1.6493,-2.77368 -2.37865,-4.21637 a 9.3865651,9.3865651 0 0 1 -0.90348,-5.55449 0.5995746,0.5995746 0 0 0 -0.0317,-0.40253 0.58635364,0.58635364 0 0 0 -0.48322,-0.1958 l -8.90797,-0.64126 a 19.385623,19.385623 0 0 1 -2.47329,-0.28295 c -0.48022,-0.0976 -1.74855,-0.77965 -2.20644,-0.59829 -0.84755,0.33566 -1.06999,4.28422 -1.24372,5.1939 z"
     id="path44"
     inkscape:connector-curvature="0"
     style="fill:#ffb8b8;stroke-width:0.56139946" />
  <path
     d="m 307.34593,351.09722 a 7.610415,7.610415 0 0 1 -1.0952,3.13562 c -0.75844,1.0372 -1.9951,1.62984 -2.81106,2.62245 -1.22816,1.49411 -1.29865,3.59654 -1.30371,5.53062 -0.004,1.78173 0.0315,3.68213 1.02512,5.16109 a 9.0196794,9.0196794 0 0 0 2.58494,2.27903 c 3.72616,2.51108 7.75264,5.06726 12.24517,5.15007 1.86143,0.0343 3.8573,-0.44639 5.08209,-1.84852 a 7.6305417,7.6305417 0 0 0 1.23046,-2.19523 29.150806,29.150806 0 0 0 2.06348,-8.87431 10.420135,10.420135 0 0 0 -0.39281,-4.26303 c -0.54576,-1.52166 -1.6493,-2.77368 -2.37865,-4.21637 a 9.3865651,9.3865651 0 0 1 -0.90348,-5.55449 0.5995746,0.5995746 0 0 0 -0.0317,-0.40253 0.58635364,0.58635364 0 0 0 -0.48322,-0.1958 l -8.90797,-0.64126 a 19.385623,19.385623 0 0 1 -2.47329,-0.28295 c -0.48022,-0.0976 -1.74855,-0.77965 -2.20644,-0.59829 -0.84755,0.33566 -1.06999,4.28422 -1.24372,5.1939 z"
     id="path46"
     inkscape:connector-curvature="0"
     style="opacity:0.1;stroke-width:0.56139946" />
  <circle
     cx="315.86487"
     cy="339.22269"
     r="13.069047"
     id="circle48"
     style="fill:#ffb8b8;stroke-width:0.56139946" />
  <path
     d="m 309.17896,368.49417 a 8.0151277,8.0151277 0 0 0 2.29551,1.83429 7.2131127,7.2131127 0 0 0 2.86775,0.54602 c 2.35583,0.0663 4.90969,-0.36539 6.54851,-2.05906 2.11255,-2.18323 2.04293,-5.70459 3.6988,-8.25163 a 1.8380779,1.8380779 0 0 1 0.53358,-0.58356 1.729638,1.729638 0 0 1 0.90754,-0.20865 c 2.09131,-0.0195 3.91303,1.33681 5.55714,2.62941 a 7.3199863,7.3199863 0 0 1 1.95601,1.99252 6.7533715,6.7533715 0 0 1 0.65959,2.01999 88.744394,88.744394 0 0 1 1.34235,12.11199 c 0.14484,2.24087 0.28976,4.4839 0.27902,6.72941 -0.0355,7.39802 -1.75501,14.67234 -3.46496,21.87012 -0.22034,0.92743 -0.52184,1.96408 -1.36525,2.40831 a 3.3664597,3.3664597 0 0 1 -1.19129,0.29077 145.78818,145.78818 0 0 1 -14.73624,1.22702 q -2.88631,0.0444 -5.77012,-0.13973 a 3.1082835,3.1082835 0 0 1 -0.97201,-0.16946 2.7410328,2.7410328 0 0 1 -1.05967,-0.89989 c -2.66712,-3.3609 -2.82454,-8.0074 -2.8075,-12.29795 q 0.0625,-15.73504 1.12439,-31.44494 c 0.0584,-0.86445 0.0712,-1.91431 -0.55168,-2.59435 a 32.477727,32.477727 0 0 0 4.14853,4.98937 z"
     id="path50"
     inkscape:connector-curvature="0"
     style="fill:#d0cde1;stroke-width:0.56139946" />
  <path
     d="m 306.41064,353.40397 c -0.4414,0.79902 -3.69565,2.7831 -4.32389,3.44531 -3.51021,3.69999 -9.91689,3.56115 -13.12725,7.52413 a 12.347773,12.347773 0 0 0 -2.14791,4.88795 c -0.61041,2.46335 -0.93636,5.14987 0.0862,7.4726 0.98394,2.235 3.05525,3.78014 4.46153,5.77657 1.54408,2.19204 2.2383,4.85364 2.90364,7.45104 0.49123,1.91785 0.98656,3.8832 0.79525,5.85369 -0.21753,2.2404 -1.30168,4.29182 -1.94178,6.44983 -0.64013,2.15799 -0.7506,4.72821 0.72943,6.42415 1.08734,1.24594 2.79285,1.73988 4.42304,2.01775 a 50.815071,50.815071 0 0 0 6.30418,0.54881 c 1.86353,0.0823 3.91767,0.0983 5.35026,-1.0963 a 5.3792173,5.3792173 0 0 0 1.68527,-3.94279 25.446861,25.446861 0 0 0 -0.43399,-4.38723 c -0.19866,-1.51279 -0.27501,-3.03878 -0.33888,-4.56322 q -0.42992,-10.26002 -0.11733,-20.53323 a 17.47412,17.47412 0 0 0 -0.20784,-4.26082 c -0.39965,-1.83208 -1.38981,-3.4694 -2.216,-5.15275 a 19.499171,19.499171 0 0 1 -2.16195,-10.30066 c 0.25016,-3.66552 1.8487,-6.45812 0.27801,-3.61483 z"
     id="path52"
     inkscape:connector-curvature="0"
     style="fill:#f9a826;stroke-width:0.56139946" />
  <path
     d="m 324.76292,353.68204 c 0.67233,0.69101 2.95689,0.9188 3.81214,1.36382 a 13.357535,13.357535 0 0 0 2.50599,0.86766 32.533614,32.533614 0 0 1 8.80346,4.04047 5.3427375,5.3427375 0 0 1 1.47219,1.27163 5.8289486,5.8289486 0 0 1 0.81437,2.29969 26.09754,26.09754 0 0 1 0.74553,6.28796 c -0.0999,2.24415 -0.77585,4.4176 -1.44647,6.56154 l -2.50573,8.01083 c -1.87037,5.97955 -3.75257,12.01796 -4.27888,18.26104 a 42.954799,42.954799 0 0 0 0.38553,10.37159 1.229577,1.229577 0 0 1 -0.12637,1.00454 0.9893823,0.9893823 0 0 1 -0.61361,0.28234 c -1.20939,0.1891 -2.37978,-0.42753 -3.4755,-0.97318 a 38.487042,38.487042 0 0 0 -10.6096,-3.47154 24.665085,24.665085 0 0 0 3.29531,-6.79308 41.11196,41.11196 0 0 0 0.99562,-4.67185 l 1.16564,-6.74173 a 66.244012,66.244012 0 0 0 0.9999,-7.45524 9.3329904,9.3329904 0 0 0 -0.16224,-2.80838 13.623829,13.623829 0 0 0 -1.0646,-2.53266 c -1.92103,-3.99594 -2.82239,-8.55602 -2.06652,-12.92485 0.33079,-1.91192 0.9736,-3.8264 0.70555,-5.74813 -0.2577,-1.84766 0.0101,-3.28363 -0.46394,-5.11215 -1.94647,-7.50775 -0.15265,-2.69032 1.11223,-1.39032 z"
     id="path54"
     inkscape:connector-curvature="0"
     style="fill:#f9a826;stroke-width:0.56139946" />
  <path
     d="m 288.92625,370.69134 c -0.87579,1.81736 -2.33992,3.36559 -2.83828,5.32044 a 11.623585,11.623585 0 0 0 -0.24746,2.78076 13.209269,13.209269 0 0 0 0.41253,4.18135 c 0.27814,0.86205 0.73063,1.65706 1.05661,2.50219 a 9.0727317,9.0727317 0 0 1 0.59431,3.70702 c -0.0879,1.75056 -0.68266,3.44984 -0.72913,5.20201 -0.0731,2.75543 1.2014,5.34575 2.44494,7.80569 a 5.7382209,5.7382209 0 0 1 8.34075,-2.73063 1.7104774,1.7104774 0 0 0 0.37592,-1.24687 q 0.13787,-4.79509 0.266,-9.59043 c 0.13461,-4.94425 0.26286,-9.9545 -0.87451,-14.76802 a 13.932385,13.932385 0 0 0 -2.77734,-6.02389 c -0.7713,-0.88756 -3.38963,-3.22553 -4.65573,-2.2312 -0.56938,0.44716 -0.4363,1.66436 -0.52652,2.28072 a 9.6762806,9.6762806 0 0 1 -0.84209,2.81086 z"
     id="path56"
     inkscape:connector-curvature="0"
     style="fill:#f9a826;stroke-width:0.56139946" />
  <path
     d="m 343.17261,365.45414 a 13.375466,13.375466 0 0 1 0.44724,4.02282 q 0.0253,4.1452 -0.10988,8.28932 a 15.453165,15.453165 0 0 1 -0.53846,4.19673 c -0.28282,0.88936 -0.71926,1.72335 -1.01135,2.6097 -0.87536,2.65636 -0.39709,5.53744 -0.32203,8.3333 a 9.4686246,9.4686246 0 0 1 -0.22931,2.69569 c -0.46195,1.73323 -1.70342,3.13373 -2.56991,4.70427 -0.82292,1.4916 -1.31946,3.16353 -2.3023,4.55497 -0.98283,1.39142 -2.68423,2.49396 -4.33335,2.06682 -1.24953,-0.32365 -2.13739,-1.42965 -2.75151,-2.56495 a 12.580738,12.580738 0 0 1 -1.30077,-8.1607 c 0.61655,-3.39338 2.60982,-6.40375 3.32867,-9.77694 0.98714,-4.63215 -0.51313,-9.41215 -0.46851,-14.1481 a 6.8390298,6.8390298 0 0 1 0.2981,-2.19313 9.1786002,9.1786002 0 0 1 1.93503,-2.81326 35.518542,35.518542 0 0 0 2.60064,-3.41304 c 0.53556,-0.79876 1.263,-2.85317 2.21256,-3.02398 2.12002,-0.38136 4.58916,2.9826 5.11514,4.62048 z"
     id="path58"
     inkscape:connector-curvature="0"
     style="fill:#f9a826;stroke-width:0.56139946" />
  <path
     d="m 277.92581,411.6255 a 12.899747,12.899747 0 0 0 -3.58834,-0.38146 8.9559271,8.9559271 0 0 0 -8.31472,10.55772 15.042737,15.042737 0 0 0 1.42187,3.88545 c 0.95165,1.93121 2.09299,3.85803 3.85472,5.09563 a 15.013556,15.013556 0 0 0 3.4019,1.61932 l 9.27867,3.49543 c 1.36499,0.51424 2.73019,1.02848 4.1087,1.50531 a 80.365957,80.365957 0 0 0 21.46026,4.26636 23.237518,23.237518 0 0 0 6.66319,-0.33764 2.1691183,2.1691183 0 0 0 1.36461,-0.73724 2.3370217,2.3370217 0 0 0 0.30489,-1.00706 l 0.57095,-3.99709 a 3.3480908,3.3480908 0 0 0 -0.0485,-1.68498 3.2272889,3.2272889 0 0 0 -1.54227,-1.45339 c -6.10007,-3.50357 -13.22266,-5.43646 -18.35714,-10.24506 -1.20874,-1.13202 -2.22028,-2.92639 -3.68888,-3.69535 -1.66539,-0.87198 -3.6267,-1.36967 -5.34811,-2.17318 -3.76321,-1.75661 -7.46316,-3.77522 -11.54176,-4.71277 z"
     id="path60"
     inkscape:connector-curvature="0"
     style="fill:#2f2e41;stroke-width:0.56139946" />
  <path
     d="m 287.1892,417.01413 c 3.27962,1.02766 17.12617,8.14734 19.49951,10.63315 -0.31812,0.11462 -11.11178,-5.9343 -11.43563,-6.0315 a 65.215101,65.215101 0 0 1 -8.70021,-3.066 c -0.56244,-0.26012 -3.65392,-1.48279 -3.51392,-2.19243 0.15799,-0.80077 3.56804,0.47436 4.15025,0.65678 z"
     id="path62"
     inkscape:connector-curvature="0"
     style="opacity:0.1;stroke-width:0.56139946" />
  <path
     d="m 328.10448,443.74227 a 0.77036352,0.77036352 0 0 0 0.5199,-0.15302 0.80302015,0.80302015 0 0 0 0.16251,-0.59827 l -0.0153,-5.44543 a 16.738204,16.738204 0 0 0 -5.03672,-1.21503 l -8.0218,-1.07224 c 0.18429,0.0247 -1.25426,3.45505 -1.03368,3.91302 0.38876,0.80717 3.35978,1.52256 4.19828,1.90367 2.9149,1.32489 5.94385,2.78145 9.2268,2.6673 z"
     id="path64"
     inkscape:connector-curvature="0"
     style="fill:#ffb8b8;stroke-width:0.56139946" />
  <path
     d="m 302.93622,437.5267 c -1.51459,0.24123 -3.20506,0.45448 -4.18593,1.63348 -1.24387,1.49515 -0.71434,3.72403 -0.12098,5.57622 a 1.8079421,1.8079421 0 0 0 2.10915,1.50863 c 1.38128,0.0874 2.85124,0.15598 4.05811,-0.52154 a 17.786606,17.786606 0 0 0 1.57642,-1.17177 10.107144,10.107144 0 0 1 2.89836,-1.3251 29.308201,29.308201 0 0 1 5.81798,-1.19897 9.0486027,9.0486027 0 0 0 2.29193,-0.40402 2.5395746,2.5395746 0 0 0 1.61408,-1.56708 c 0.27957,-0.98959 -0.2956,-1.99852 -0.84721,-2.86638 a 11.435241,11.435241 0 0 0 -2.43966,-3.01528 c -1.49471,-1.16106 -2.23409,-0.26976 -3.73973,0.47323 a 31.729461,31.729461 0 0 1 -9.03252,2.87858 z"
     id="path66"
     inkscape:connector-curvature="0"
     style="fill:#ffb8b8;stroke-width:0.56139946" />
  <path
     d="m 298.97816,438.89095 -9.61707,-2.84246 a 12.729228,12.729228 0 0 0 -3.57886,-0.69351 4.2963899,4.2963899 0 0 0 -3.28667,1.32915 c -0.74574,0.87522 -0.95918,2.07145 -1.14509,3.20615 l -0.39769,2.42734 a 12.191193,12.191193 0 0 0 -0.22266,3.72752 4.1213624,4.1213624 0 0 0 1.91051,3.07088 c 1.33082,0.72608 2.9619,0.37144 4.44717,0.0678 a 48.416952,48.416952 0 0 1 9.11361,-0.97731 c 1.15109,-0.0138 2.35848,6.6e-4 3.37564,-0.53843 a 4.2145099,4.2145099 0 0 0 2.05685,-3.35854 c 0.18923,-2.07348 -0.50189,-4.78192 -2.65574,-5.41853 z"
     id="path68"
     inkscape:connector-curvature="0"
     style="fill:#2f2e41;stroke-width:0.56139946" />
  <path
     d="m 331.88481,436.41393 c 1.2467,-0.2185 2.34699,-0.92706 3.54161,-1.34531 1.68148,-0.58867 3.50368,-0.58867 5.28523,-0.58216 a 3.3930085,3.3930085 0 0 1 1.89485,0.3795 c 0.78474,0.52245 0.98587,1.56797 1.1193,2.50121 l 0.80504,5.63072 a 8.8359896,8.8359896 0 0 1 0.0658,3.18993 3.0009999,3.0009999 0 0 1 -1.98285,2.31858 c -1.25755,0.32694 -2.49038,-0.4764 -3.67777,-1.00412 -2.96775,-1.31896 -6.41761,-0.98188 -9.51201,-1.96766 a 2.1318975,2.1318975 0 0 1 -1.42358,-1.018 2.316205,2.316205 0 0 1 -0.11075,-0.97302 c 0.0529,-1.80988 -0.32873,-4.2813 0.21614,-6.01102 0.49008,-1.55562 2.38738,-1.11865 3.77902,-1.11865 z"
     id="path70"
     inkscape:connector-curvature="0"
     style="fill:#2f2e41;stroke-width:0.56139946" />
  <path
     d="m 352.2366,409.35918 a 16.700438,16.700438 0 0 1 5.88302,-0.40196 c 1.57275,0.17326 3.19318,0.6109 4.34146,1.69948 1.39764,1.32496 1.84671,3.37405 1.88416,5.29953 a 16.556933,16.556933 0 0 1 -3.59867,10.57396 9.5943725,9.5943725 0 0 1 -2.05744,1.98062 13.542707,13.542707 0 0 1 -2.67685,1.28998 l -20.77918,8.19594 c -5.46655,2.15616 -10.95239,4.31858 -16.65428,5.74002 a 1.2979556,1.2979556 0 0 1 -1.74654,-0.63321 43.049569,43.049569 0 0 1 -4.55422,-8.33083 0.56137137,0.56137137 0 0 1 0.24814,-0.88514 l 14.69725,-8.44461 a 14.860513,14.860513 0 0 0 2.99143,-2.06114 7.4264164,7.4264164 0 0 0 1.53582,-2.13816 c 0.30465,-0.63632 0.33307,-2.13794 0.72222,-2.60827 0.38099,-0.4605 1.68433,-0.49724 2.28627,-0.67838 a 20.744832,20.744832 0 0 0 2.48899,-0.94086 c 3.28766,-1.47079 6.21529,-3.6078 9.36695,-5.32992 a 24.034217,24.034217 0 0 1 5.62147,-2.32705 z"
     id="path72"
     inkscape:connector-curvature="0"
     style="fill:#2f2e41;stroke-width:0.56139946" />
  <path
     d="m 343.90456,415.66554 c -2.52504,1.89649 -5.79452,3.6398 -8.29711,5.58625 -0.8541,0.6643 -15.09224,8.66913 -15.29357,9.73227 2.33477,0.39339 17.20746,-10.01119 19.33539,-11.0494 a 34.365158,34.365158 0 0 0 5.88342,-3.95562 c 0.47636,-0.37036 2.4951,-1.48373 1.12767,-1.89754 -0.77034,-0.23305 -2.18709,1.20493 -2.7558,1.58404 z"
     id="path74"
     inkscape:connector-curvature="0"
     style="opacity:0.1;stroke-width:0.56139946" />
  <polygon
     points="563.118,587.065 565.502,602.799 588.865,602.322 587.911,583.727 567.886,573.238 540.232,577.529 534.511,602.799 548.753,602.251 552.732,592.967 552.732,602.098 559.304,601.845 "
     id="polygon76"
     transform="matrix(0.56139944,0,0,0.56139944,0,-0.0651423)"
     style="fill:#2f2e41" />
  <rect
     x="303.35193"
     y="356.74078"
     width="24.191639"
     height="29.19681"
     id="rect78"
     style="fill:#3f3d56;stroke-width:0.56139946" />
  <path
     d="m 291.86745,407.52166 a 5.841698,5.841698 0 0 0 2.09845,2.08764 4.1038299,4.1038299 0 0 0 3.60731,-0.0967 6.3496017,6.3496017 0 0 0 2.60329,-2.61007 c 1.22178,-2.1575 1.47479,-4.73919 1.32235,-7.21392 -0.15243,-2.47475 -0.68086,-4.9116 -0.91473,-7.37997 -0.17001,-1.79435 -0.18384,-3.5994 -0.19753,-5.40173 a 1.7963211,1.7963211 0 0 1 0.227,-1.09242 2.144877,2.144877 0 0 1 1.20518,-0.60182 c 2.46585,-0.73262 4.10262,-3.04391 5.27603,-5.33306 0.78355,-1.52853 1.4649,-3.19941 1.3138,-4.91041 -0.1511,-1.71102 -1.38094,-3.4347 -3.08972,-3.60924 -1.40876,-0.14391 -2.70952,0.75086 -3.72573,1.73709 a 15.976183,15.976183 0 0 0 -4.67779,9.34859 c -0.22306,1.73971 -0.15918,3.52676 -0.63236,5.21568 -1.01034,3.60615 -4.1715,5.8171 -5.74685,9.06199 -1.73583,3.57551 -0.77777,7.63475 1.3313,10.79834 z"
     id="path80"
     inkscape:connector-curvature="0"
     style="fill:#ffb8b8;stroke-width:0.56139946" />
  <path
     d="m 338.38585,393.74468 a 6.8150916,6.8150916 0 0 1 -3.82184,3.67231 5.2783899,5.2783899 0 0 1 -3.3224,0.20347 3.6841613,3.6841613 0 0 1 -2.43387,-2.17698 5.8646087,5.8646087 0 0 1 -0.27414,-1.6352 c -0.15809,-2.43184 -0.097,-4.93778 0.78632,-7.20902 0.3407,-0.87602 0.80007,-1.70682 1.06896,-2.60749 a 13.077042,13.077042 0 0 0 0.40252,-3.18219 l 0.29038,-6.63528 a 4.3182845,4.3182845 0 0 0 -0.0985,-1.43872 c -0.28965,-0.96009 -1.18695,-1.58403 -2.01025,-2.15657 -1.98834,-1.38272 -3.95324,-2.99626 -4.91674,-5.21824 a 3.6598864,3.6598864 0 0 1 -0.33974,-2.1615 c 0.27168,-1.3176 1.60135,-2.17056 2.9156,-2.45793 a 6.5216818,6.5216818 0 0 1 7.81861,5.25541 c 0.13002,0.7488 0.12824,1.51368 0.20436,2.26986 0.16142,1.60407 0.67065,3.15029 0.98922,4.73067 0.78471,3.8928 0.37809,7.91686 1.15406,11.80896 0.64883,3.25428 3.09534,5.37772 1.58751,8.93844 z"
     id="path82"
     inkscape:connector-curvature="0"
     style="fill:#ffb8b8;stroke-width:0.56139946" />
  <circle
     cx="316.0679"
     cy="367.13034"
     r="3.929796"
     id="circle84"
     style="fill:#f9a826;stroke-width:0.56139946" />
  <circle
     cx="119.01669"
     cy="58.360638"
     r="4.4911957"
     id="circle86"
     style="fill:#f2f2f2;stroke-width:0.56139946" />
  <circle
     cx="320.55908"
     cy="58.360638"
     r="4.4911957"
     id="circle88"
     style="fill:#f2f2f2;stroke-width:0.56139946" />
</svg>
