<?xml version="1.0" encoding="utf-8"?>
<!DOCTYPE svg PUBLIC "-//W3C//DTD SVG 1.1//EN" "http://www.w3.org/Graphics/SVG/1.1/DTD/svg11.dtd">
<svg version="1.1" xmlns="http://www.w3.org/2000/svg" xmlns:xlink="http://www.w3.org/1999/xlink" x="0px" y="0px" viewBox="0 0 1000 1000" enable-background="new 0 0 1000 1000" xml:space="preserve">
<g><path fill="#fa383e" d="M494.9,612.7l-39.6,39.6c-5.5,5.5-5.5,14.3,0,19.8c5.5,5.5,14.3,5.5,19.8,0l39.6-39.6c5.5-5.5,5.5-14.3,0-19.8C509.2,607.3,500.4,607.3,494.9,612.7z M475.1,573.1c-5.5-5.5-14.3-5.5-19.8,0l-39.6,39.6c-5.5,5.5-5.5,14.3,0,19.8c5.5,5.5,14.3,5.5,19.8,0l39.6-39.6C480.5,587.5,480.5,578.6,475.1,573.1z M435.5,533.5c-5.5-5.4-14.3-5.4-19.8,0l-39.6,39.6c-5.5,5.5-5.5,14.3,0,19.8c5.5,5.5,14.3,5.5,19.8,0l39.6-39.6C440.9,547.8,440.9,539,435.5,533.5z M395.9,493.9c-5.5-5.5-14.3-5.5-19.8,0l-39.6,39.6c-5.5,5.5-5.5,14.3,0,19.8c5.5,5.5,14.3,5.5,19.8,0l39.6-39.6C401.4,508.3,401.4,499.4,395.9,493.9z M500,10C229.4,10,10,229.4,10,500c0,70.1,14.8,136.7,41.3,197c0.6,1.2,1.2,2.3,1.9,3.5v0.7C65.6,729,80.7,755.3,97.9,780v143.6h155.7c29.1,16.9,60.1,31,92.6,41.7c48.4,16,100.1,24.7,153.9,24.7c203.1,0,377.3-123.5,451.6-299.6C976.3,631.9,990,567.5,990,500C990,229.4,770.6,10,500,10z M686.7,514.5c1.4,1.4,2.4,3,3.1,4.6c12.5,16.5,12,39.7-3.1,54.8c-7.7,7.7-17.6,11.5-27.7,11.8c-0.5,10.1-4.2,20.1-11.9,27.8c-7.7,7.7-17.6,11.5-27.7,11.8c-0.4,10.1-4.2,20.1-11.9,27.8c-7.7,7.7-17.6,11.5-27.7,11.8c-0.5,10.1-4.2,20.1-11.9,27.8c-15,15-38.3,15.6-54.8,3.1c-1.7-0.7-3.3-1.7-4.6-3.1l-7.2-7.2l-6.4,6.5c-1.4,1.4-3,2.4-4.6,3.1c-16.5,12.5-39.7,12-54.8-3.1c-7.7-7.7-11.5-17.7-11.9-27.8c-10-0.3-19.9-4.1-27.7-11.8c-7.7-7.7-11.5-17.7-11.9-27.8c-10-0.3-19.9-4.1-27.7-11.8c-7.7-7.7-11.5-17.7-11.9-27.8c-10-0.3-19.9-4.1-27.7-11.8c-15-15-15.6-38.3-3.1-54.8c0.7-1.7,1.7-3.2,3.1-4.6l6.4-6.4l-7.4-7.4l0,0l-1.2-1.2c-49.2-49.2-49.2-129,0-178.2c49.2-49.2,129-49.2,178.2,0l9.1,9.1l9.1-9.1c49.2-49.2,129-49.2,178.2,0c49.2,49.2,49.2,129,0,178.2l-9,9L686.7,514.5z M539.3,644.3c-0.7,1.1-1,2.4-1.8,3.4c-0.7,1.7-1.7,3.3-3.1,4.6l-13.3,13.3l7.2,7.2c5.5,5.5,14.3,5.5,19.8,0c5.5-5.5,5.5-14.3,0-19.8L539.3,644.3z M454.4,456.2c10.9,10.9,28.7,10.9,39.6,0l17.2-17.2c0,0,0-0.1,0-0.1l38.8-38.8c0.5-0.6,0.3-1.5,0.9-2.1c5.5-5.5,14.3-5.5,19.8,0l79.2,79.2c0.2,0.2,0.2,0.5,0.3,0.7l10,10l9-9c38.3-38.3,38.3-100.3,0-138.6l0,0c-38.3-38.3-100.3-38.3-138.6,0l-9.1,9.1l0.4,0.4l-19.8,19.8l-29.3-29.2c-38.3-38.3-100.3-38.3-138.6,0c-38.3,38.3-38.3,100.3,0,138.6l0.4,0.4h0l8.3,8.3l13.4-13.4c1.4-1.4,3-2.4,4.6-3.1c16.5-12.5,39.7-12,54.8,3.1c7.7,7.7,11.5,17.6,11.8,27.7c10.1,0.4,20.1,4.2,27.8,11.9c7.7,7.7,11.5,17.6,11.8,27.7c10.1,0.4,20.1,4.2,27.8,11.9c7.7,7.7,11.5,17.6,11.8,27.7c10.1,0.4,20.1,4.2,27.8,11.9c4.8,4.8,7.5,10.4,9.4,16.4l24,24c5.5,5.5,14.3,5.5,19.8,0c5.5-5.5,5.5-14.3,0-19.8l-39.6-39.6c-5.5-5.5-5.5-14.3,0-19.8c5.5-5.5,14.3-5.5,19.8,0l39.6,39.6c5.5,5.5,14.3,5.5,19.8,0c5.5-5.5,5.5-14.3,0-19.8l-39.6-39.6c-5.5-5.5-5.5-14.3,0-19.8c5.5-5.5,14.3-5.5,19.8,0l39.6,39.6c5.5,5.5,14.3,5.5,19.8,0c5.5-5.5,5.5-14.3,0-19.8l-6.7-6.7L611.7,479c0,0-0.1,0-0.1,0l-27.2-27.2h0.6l-23.5-23.5L538,451.8h0L513.8,476c-21.9,21.9-57.3,21.9-79.2,0c-21.9-21.9-21.9-57.3,0-79.2l47-47l19.8,19.8l-47,47C443.4,427.5,443.4,445.2,454.4,456.2z"/></g>
</svg>
