<?xml version="1.0" encoding="UTF-8" standalone="no"?>
<!-- Designed by Vexels.com - 2020 All Rights Reserved - https://vexels.com/terms-and-conditions/  -->

<svg
   version="1.1"
   id="Layer_1"
   x="0px"
   y="0px"
   viewBox="0 0 1200 1200"
   enable-background="new 0 0 1200 1200"
   xml:space="preserve"
   sodipodi:docname="buy.svg"
   inkscape:version="1.2.2 (b0a8486541, 2022-12-01)"
   xmlns:inkscape="http://www.inkscape.org/namespaces/inkscape"
   xmlns:sodipodi="http://sodipodi.sourceforge.net/DTD/sodipodi-0.dtd"
   xmlns="http://www.w3.org/2000/svg"
   xmlns:svg="http://www.w3.org/2000/svg"><defs
   id="defs23" /><sodipodi:namedview
   id="namedview21"
   pagecolor="#ffffff"
   bordercolor="#666666"
   borderopacity="1.0"
   inkscape:showpageshadow="2"
   inkscape:pageopacity="0.0"
   inkscape:pagecheckerboard="0"
   inkscape:deskcolor="#d1d1d1"
   showgrid="false"
   inkscape:zoom="0.70833333"
   inkscape:cx="600"
   inkscape:cy="417.17647"
   inkscape:window-width="1452"
   inkscape:window-height="752"
   inkscape:window-x="120"
   inkscape:window-y="114"
   inkscape:window-maximized="0"
   inkscape:current-layer="g18" />
<g
   id="g18">
	<path
   fill="none"
   d="M687.093,288.701c-5.833-65.016-18.543-130.773-44.803-160.116c-19.303-21.571-43.832-32.054-74.986-32.054   c-35.407,0-63.362,11.733-85.483,35.871c-27.277,29.767-41.497,94.29-48.751,158.038c15.329-0.696,31.535-1.1,48.728-1.1   C555.294,289.339,628.181,289.04,687.093,288.701z"
   id="path2" />
	<path
   fill="#ED2F2F"
   d="M 1064.953,954.887 C 1055.133,816.744 992.335,440.676 971.743,376.659 939.379,276.05 816.507,287.755 816.507,287.755 c 0,0 -32.476,0.31 -83.279,0.655 1.32,14.193 2.324,28.205 3.07,41.77 l 119.229,0.845 c 45.031,0.791 82.365,36.743 84.865,81.847 l 22.508,645.691 c 1.327,24.02 -7.043,46.867 -23.575,64.339 -8.987,9.494 -19.727,16.577 -31.487,21.151 l 0.019,0.023 c 37.754,-11.782 49.193,-19.404 67.448,-32.426 29.703,-21.185 96.232,-64.152 89.648,-156.763 z"
   id="path4"
   style="fill:#2b0000" />
	<path
   fill="#ed2f2f"
   d="m 383.239,327.677 c 0.88,-11.09 1.961,-22.477 3.244,-33.993 -103.254,9.853 -151.912,33.072 -151.912,33.072 l 1.614,1.959 c 6.334,-1.344 12.882,-2.075 19.614,-1.942 z"
   id="path6"
   style="stroke:#000000;fill:#000000" />
	<path
   fill="#ed2f2f"
   d="m 481.799,289.339 c -17.194,0 -33.399,0.404 -48.728,1.1 -1.439,12.649 -2.605,25.256 -3.542,37.566 l 260.42,1.847 c -0.682,-13.45 -1.611,-27.271 -2.856,-41.151 -58.912,0.339 -131.799,0.638 -205.294,0.638 z"
   id="path8"
   style="fill:#2b0000;stroke:#280b0b" />
	<path
   fill="#FF7F29"
   d="M401.274,493.79c-18.14,0-32.899,14.755-32.899,32.89c0,18.14,14.759,32.894,32.899,32.894   s32.89-14.755,32.89-32.894C434.163,508.544,419.414,493.79,401.274,493.79z"
   id="path10" />
	<path
   fill="#FF7F29"
   d="M682.114,526.68c0,18.14,14.759,32.894,32.899,32.894s32.89-14.755,32.89-32.894   c0-18.135-14.75-32.89-32.89-32.89S682.114,508.544,682.114,526.68z"
   id="path12" />
	<path
   fill="#FF7F29"
   d="M 962.9,1058.565 940.392,412.874 c -2.499,-45.104 -39.833,-81.057 -84.865,-81.847 l -119.229,-0.845 c 2.991,54.481 1.858,101.387 0.622,120.221 33.161,9.541 57.513,40.092 57.513,76.278 0,43.795 -35.625,79.425 -79.421,79.425 -43.796,0 -79.43,-35.63 -79.43,-79.425 0,-35.113 22.934,-64.929 54.591,-75.387 1.143,-16.129 2.617,-65.362 -0.225,-121.44 l -260.42,-1.847 c -4.318,56.739 -3.814,106.944 -3.106,123.402 31.492,10.552 54.272,40.277 54.272,75.273 0,43.795 -35.625,79.425 -79.421,79.425 -43.796,0 -79.43,-35.63 -79.43,-79.425 0,-36.335 24.563,-66.978 57.933,-76.384 -0.734,-18.845 -0.959,-66.975 3.463,-122.618 L 255.8,326.776 c -6.732,-0.133 -13.28,0.598 -19.614,1.942 -37.22,7.898 -66.074,39.817 -68.404,79.592 l -33.044,649.958 c -1.39,23.724 7.161,47.249 23.465,64.535 16.304,17.286 39.279,27.197 63.036,27.197 h 655.142 c 10.984,0 21.576,-2.1 31.457,-5.945 11.76,-4.575 22.5,-11.658 31.487,-21.151 16.531,-17.472 24.902,-40.32 23.575,-64.339 z"
   id="path14"
   style="fill:#ff0000" />
	<path
   fill="#08175B"
   d="M379.777,450.295c-33.37,9.407-57.933,40.05-57.933,76.384c0,43.795,35.634,79.425,79.43,79.425   s79.421-35.63,79.421-79.425c0-34.995-22.779-64.72-54.272-75.273c-0.708-16.458-1.212-66.662,3.106-123.402   c0.937-12.31,2.103-24.917,3.542-37.566c7.253-63.748,21.474-128.271,48.751-158.038c22.12-24.138,50.075-35.871,85.483-35.871   c31.154,0,55.683,10.483,74.986,32.054c26.26,29.343,38.97,95.1,44.803,160.116c1.245,13.88,2.174,27.701,2.856,41.151   c2.842,56.079,1.368,105.311,0.225,121.44c-31.657,10.458-54.591,40.274-54.591,75.387c0,43.795,35.634,79.425,79.43,79.425   c43.795,0,79.421-35.63,79.421-79.425c0-36.186-24.352-66.737-57.513-76.278c1.236-18.834,2.369-65.74-0.622-120.221   c-0.745-13.565-1.75-27.577-3.07-41.77c-6.932-74.466-22.635-153.23-56.204-190.789C648.779,66.022,611.863,50,567.304,50   c-48.494,0-88.8,17.149-119.79,50.971c-35.365,38.593-52.733,118.299-61.03,192.714c-1.284,11.516-2.364,22.903-3.244,33.993   C378.818,383.321,379.043,431.451,379.777,450.295z M434.163,526.68c0,18.14-14.75,32.894-32.89,32.894   s-32.899-14.755-32.899-32.894c0-18.135,14.759-32.89,32.899-32.89S434.163,508.544,434.163,526.68z M747.903,526.68   c0,18.14-14.75,32.894-32.89,32.894s-32.899-14.755-32.899-32.894c0-18.135,14.759-32.89,32.899-32.89   S747.903,508.544,747.903,526.68z"
   id="path16" />
</g>
</svg>
