<svg height="512pt" viewBox="0 0 512 511" width="512pt" xmlns="http://www.w3.org/2000/svg"><path d="m8 8.5h496v416h-496zm0 0" fill="#ffe082"/><path d="m8 8.5h496v64h-496zm0 0" fill="#9fa8da"/><path d="m416 284.597656v-40.195312l-37.726562-13.414063-12.121094-29.25 17.191406-36.167969-28.414062-28.414062-36.167969 17.191406-29.25-12.121094-13.414063-37.726562h-40.195312l-13.414063 37.726562-29.25 12.121094-36.167969-17.191406-28.414062 28.414062 17.191406 36.167969-12.121094 29.25-37.726562 13.414063v40.195312l37.726562 13.414063 12.121094 29.25-17.191406 36.167969 28.414062 28.414062 36.167969-17.191406 29.25 12.121094 13.414063 37.726562h40.195312l13.414063-37.726562 29.25-12.121094 36.167969 17.191406 28.414062-28.414062-17.191406-36.167969 12.121094-29.25zm-160.625 51.277344c-39.761719 0-72-32.234375-72-72 0-39.761719 32.238281-72 72-72 39.765625 0 72 32.238281 72 72 0 39.765625-32.234375 72-72 72zm0 0" fill="#ff8a65"/><path d="m489.425781 446.140625-122.496093-116 14.34375-53.535156-65.320313-65.320313-53.554687 14.375 52.257812 52.253906-45.257812 45.257813-52.238282-52.273437-14.34375 53.539062 65.320313 65.320312 53.535156-14.347656 122.398437 118.136719c6.429688 6.207031 15.109376 9.523437 24.039063 9.183594 8.929687-.34375 17.332031-4.3125 23.265625-10.992188 11.765625-13.234375 10.902344-33.417969-1.949219-45.597656zm0 0" fill="#9fa8da"/><g fill="#fff"><path d="m160 32.5h320v16h-320zm0 0"/><path d="m32 32.5h16v16h-16zm0 0"/><path d="m64 32.5h16v16h-16zm0 0"/><path d="m96 32.5h16v16h-16zm0 0"/></g><path d="m512 .5h-512v432h369.296875l69.238281 66.824219c7.574219 7.359375 17.726563 11.464843 28.289063 11.441406h1.601562c16.40625-.628906 30.839844-11.035156 36.625-26.402344 5.78125-15.371093 1.785157-32.710937-10.140625-44l-8.253906-7.863281h25.34375zm-241.550781 416h-28.898438l-12.75-35.761719-35.808593-14.832031-34.289063 16.289062-20.429687-20.429687 16.285156-34.289063-14.796875-35.777343-35.761719-12.75v-28.898438l35.761719-12.71875 14.832031-35.808593-16.289062-34.289063 20.429687-20.429687 34.289063 16.289062 35.777343-14.832031 12.75-35.761719h28.898438l12.71875 35.761719 35.808593 14.832031 34.289063-16.289062 20.429687 20.429687-16.289062 34.289063 14.832031 35.777343 35.761719 12.75v28.898438l-21.070312 7.488281 3.261718-12.183594-71.847656-71.859375-9.175781 2.464844c-14.652344-13.515625-33.859375-21.007813-53.792969-20.984375-44.160156.050781-79.949219 35.839844-80 80-.023438 19.933594 7.464844 39.140625 20.976562 53.792969l-2.457031 9.175781 71.847657 71.847656 12.195312-3.261718zm19.382812-206.464844-42.871093 11.488282 56.398437 56.402343-33.945313 33.933594-56.390624-56.390625-11.488282 42.871094c-6.644531-10.265625-10.171875-22.234375-10.160156-34.464844.039062-35.328125 28.671875-63.960938 64-64 12.226562-.011719 24.195312 3.515625 34.457031 10.160156zm-2.398437 206.464844 9.277344-26.105469 22.664062-6.0625 33.335938 32.167969zm197.972656 69.9375c-4.472656 5.070312-10.839844 8.078125-17.597656 8.308594-6.75.242187-13.308594-2.261719-18.175782-6.941406l-73.632812-71.066407v-.238281h-.246094l-51.753906-49.96875-53.449219 14.320312-58.808593-58.75 9.601562-35.691406 48.113281 48.113282 56.566407-56.558594-48.121094-48.121094 35.699218-9.601562 58.789063 58.785156-14.398437 53.671875 125.929687 119.257812c9.785156 9.175781 10.445313 24.492188 1.484375 34.480469zm10.59375-69.9375h-26.246094l-93.867187-88.855469 6.015625-22.402343 42.097656-15v-51.484376l-39.695312-14.105468-9.402344-22.679688 18.089844-38.066406-36.398438-36.398438-38.066406 18.089844-22.679688-9.402344-14.105468-39.695312h-51.484376l-14.105468 39.695312-22.679688 9.402344-38.066406-18.089844-36.398438 36.398438 18.089844 38.066406-9.402344 22.679688-39.695312 14.105468v51.484376l39.695312 14.105468 9.402344 22.679688-18.089844 38.066406 36.398438 36.398438 38.066406-18.089844 22.679688 9.402344 8.414062 23.695312h-208.566406v-336h480zm0-352h-480v-48h480zm0 0"/></svg>