<svg height="512pt" viewBox="0 0 512 512" width="512pt" xmlns="http://www.w3.org/2000/svg"><path d="m502 42c0 17.671875-14.328125 32-32 32s-32-14.328125-32-32 14.328125-32 32-32 32 14.328125 32 32zm0 0" fill="#91def5"/><path d="m502 470c0 17.671875-14.328125 32-32 32s-32-14.328125-32-32 14.328125-32 32-32 32 14.328125 32 32zm0 0" fill="#ff6977"/><path d="m74 470c0 17.671875-14.328125 32-32 32s-32-14.328125-32-32 14.328125-32 32-32 32 14.328125 32 32zm0 0" fill="#ffcb7c"/><path d="m74 42c0 17.671875-14.328125 32-32 32s-32-14.328125-32-32 14.328125-32 32-32 32 14.328125 32 32zm0 0" fill="#d8ec84"/><path d="m408 277.007812v-42.015624c0-3.414063-2.765625-6.179688-6.179688-6.179688h-23.121093c-3.203125-14.5625-8.929688-28.175781-16.707031-40.359375l16.34375-16.339844c2.410156-2.414062 2.410156-6.324219 0-8.738281l-29.710938-29.710938c-2.414062-2.410156-6.324219-2.410156-8.738281 0l-16.339844 16.34375c-12.183594-7.777343-25.800781-13.503906-40.359375-16.707031v-23.121093c0-3.414063-2.765625-6.179688-6.179688-6.179688h-42.015624c-3.414063 0-6.179688 2.765625-6.179688 6.179688v23.152343c-14.539062 3.222657-28.136719 8.953125-40.296875 16.734375l-16.402344-16.402344c-2.414062-2.410156-6.324219-2.410156-8.738281 0l-29.710938 29.710938c-2.410156 2.414062-2.410156 6.324219 0 8.738281l16.4375 16.4375c-7.746093 12.15625-13.449218 25.738281-16.644531 40.261719h-23.277343c-3.414063 0-6.179688 2.765625-6.179688 6.179688v42.015624c0 3.414063 2.765625 6.179688 6.179688 6.179688h23.308593c3.210938 14.503906 8.925781 28.0625 16.675781 40.203125l-16.5 16.496094c-2.410156 2.414062-2.410156 6.324219 0 8.738281l29.710938 29.710938c2.414062 2.410156 6.324219 2.410156 8.738281 0l16.496094-16.496094c12.140625 7.746094 25.703125 13.460937 40.203125 16.671875v23.308593c0 3.414063 2.765625 6.179688 6.179688 6.179688h42.015624c3.414063 0 6.179688-2.765625 6.179688-6.179688v-23.273437c14.523438-3.199219 28.105469-8.902344 40.261719-16.648437l16.4375 16.4375c2.414062 2.414062 6.328125 2.414062 8.738281 0l29.710938-29.710938c2.414062-2.410156 2.414062-6.324219 0-8.738281l-16.402344-16.398438c7.78125-12.164062 13.515625-25.757812 16.734375-40.300781h23.152343c3.414063 0 6.179688-2.765625 6.179688-6.179688zm0 0" fill="#60a4ff"/><path d="m328 256c0 39.765625-32.234375 72-72 72s-72-32.234375-72-72 32.234375-72 72-72 72 32.234375 72 72zm0 0" fill="#fff"/><path d="m284 256c0 15.464844-12.535156 28-28 28s-28-12.535156-28-28 12.535156-28 28-28 28 12.535156 28 28zm0 0" fill="#ff6977"/><path d="m385.40625 332.816406-10.890625-10.890625c5.085937-9.101562 9.078125-18.71875 11.933594-28.738281h15.371093c8.921876 0 16.179688-7.257812 16.179688-16.179688v-42.015624c0-8.921876-7.257812-16.179688-16.179688-16.179688h-15.328124c-2.84375-10.039062-6.835938-19.675781-11.917969-28.796875l10.832031-10.832031c6.308594-6.308594 6.308594-16.574219 0-22.882813l-29.707031-29.707031c-3.058594-3.058594-7.121094-4.738281-11.441407-4.738281-4.320312 0-8.386718 1.679687-11.441406 4.738281l-10.832031 10.832031c-9.121094-5.082031-18.757813-9.074219-28.796875-11.917969v-15.332031c0-8.917969-7.257812-16.179687-16.175781-16.179687h-42.019531c-8.921876 0-16.179688 7.261718-16.179688 16.179687v15.375c-10.019531 2.851563-19.636719 6.847657-28.738281 11.929688l-10.890625-10.886719c-3.054688-3.058594-7.117188-4.738281-11.441406-4.738281-4.320313 0-8.382813 1.679687-11.4375 4.738281l-29.710938 29.710938c-6.308594 6.304687-6.308594 16.570312 0 22.878906l10.9375 10.933594c-5.058594 9.09375-9.027344 18.695312-11.867188 28.695312h-15.484374c-8.917969 0-16.175782 7.257812-16.175782 16.179688v42.015624c0 8.921876 7.257813 16.179688 16.175782 16.179688h15.53125c2.84375 9.980469 6.816406 19.566406 11.875 28.636719l-10.992188 10.992187c-6.308594 6.308594-6.308594 16.570313 0 22.878906l29.710938 29.710938c3.054687 3.054688 7.117187 4.738281 11.4375 4.738281 4.324218 0 8.386718-1.683593 11.441406-4.738281l10.992187-10.992188c9.070313 5.058594 18.65625 9.035157 28.636719 11.878907v15.527343c0 8.921876 7.257812 16.179688 16.179688 16.179688h42.015624c8.921876 0 16.179688-7.257812 16.179688-16.179688v-15.484374c10-2.835938 19.605469-6.808594 28.695312-11.863282l10.933594 10.933594c3.054688 3.058594 7.117188 4.738281 11.441406 4.738281 4.320313 0 8.382813-1.683593 11.4375-4.738281l29.710938-29.710938c6.308594-6.308593 6.308594-16.570312 0-22.878906zm-16.503906-51.792968c-2.921875 13.199218-8.101563 25.675781-15.390625 37.074218-2.53125 3.957032-1.96875 9.140625 1.351562 12.460938l13.699219 13.695312-24.304688 24.308594-13.738281-13.734375c-3.3125-3.316406-8.488281-3.886719-12.441406-1.363281-11.398437 7.261718-23.859375 12.414062-37.039063 15.3125-4.585937 1.011718-7.851562 5.074218-7.851562 9.769531v19.453125h-34.375v-19.488281c0-4.691407-3.257812-8.75-7.835938-9.765625-13.164062-2.914063-25.609374-8.074219-36.984374-15.339844-3.957032-2.523438-9.136719-1.957031-12.453126 1.359375l-13.792968 13.796875-24.308594-24.308594 13.796875-13.792968c3.316406-3.320313 3.882813-8.496094 1.355469-12.453126-7.261719-11.378906-12.421875-23.820312-15.335938-36.984374-1.015625-4.578126-5.074218-7.835938-9.765625-7.835938h-19.488281v-34.375h19.457031c4.695313 0 8.757813-3.265625 9.765625-7.851562 2.898438-13.179688 8.050782-25.640626 15.3125-37.039063 2.519532-3.953125 1.953125-9.128906-1.363281-12.445313l-13.734375-13.734374 24.308594-24.304688 13.699218 13.699219c3.320313 3.316406 8.5 3.882812 12.457032 1.351562 11.402344-7.289062 23.875-12.46875 37.074218-15.390625 4.578126-1.015625 7.835938-5.074218 7.835938-9.765625v-19.332031h34.375v19.300781c0 4.691407 3.265625 8.753907 7.851562 9.765625 13.214844 2.90625 25.707032 8.078125 37.128907 15.367188 3.957031 2.527344 9.132812 1.960937 12.449219-1.355469l13.640624-13.640625 24.308594 24.308594-13.640625 13.636718c-3.316406 3.316407-3.882812 8.496094-1.359375 12.453126 7.292969 11.417968 12.460938 23.910156 15.371094 37.128906 1.007812 4.585937 5.070312 7.851562 9.765625 7.851562h19.296875v34.371094h-19.332031c-4.691407 0-8.75 3.257812-9.765625 7.835938zm0 0"/><path d="m240.179688 175.53125c-5.417969 1.0625-8.953126 6.316406-7.890626 11.734375 1.058594 5.421875 6.316407 8.957031 11.734376 7.894531 20.328124-3.976562 41.195312 2.375 55.816406 17 24.175781 24.171875 24.175781 63.507813 0 87.679688-24.175782 24.175781-63.507813 24.175781-87.679688 0-14.589844-14.585938-20.953125-35.40625-17.023437-55.691406 1.046875-5.421876-2.496094-10.667969-7.917969-11.71875-5.417969-1.058594-10.667969 2.496093-11.71875 7.917968-5.191406 26.816406 3.226562 54.34375 22.519531 73.636719 15.984375 15.984375 36.984375 23.980469 57.980469 23.980469s41.996094-7.996094 57.984375-23.980469c31.96875-31.972656 31.96875-83.996094 0-115.96875-19.339844-19.335937-46.929687-27.746094-73.804687-22.484375zm0 0"/><path d="m256 294c20.953125 0 38-17.046875 38-38s-17.046875-38-38-38-38 17.046875-38 38 17.046875 38 38 38zm0-56c9.925781 0 18 8.074219 18 18s-8.074219 18-18 18-18-8.074219-18-18 8.074219-18 18-18zm0 0"/><path d="m470 84c11.21875 0 21.765625-4.367188 29.699219-12.300781 7.933593-7.933594 12.300781-18.480469 12.300781-29.699219s-4.367188-21.765625-12.300781-29.699219c-7.933594-7.929687-18.480469-12.300781-29.699219-12.300781s-21.765625 4.367188-29.699219 12.300781c-7.933593 7.933594-12.300781 18.480469-12.300781 29.699219s4.367188 21.765625 12.300781 29.699219c7.933594 7.929687 18.480469 12.300781 29.699219 12.300781zm-15.554688-57.554688c4.152344-4.15625 9.679688-6.445312 15.554688-6.445312s11.402344 2.289062 15.558594 6.445312c4.152344 4.15625 6.441406 9.679688 6.441406 15.554688s-2.289062 11.398438-6.441406 15.554688c-4.15625 4.15625-9.683594 6.445312-15.558594 6.445312s-11.402344-2.289062-15.558594-6.445312c-4.152344-4.15625-6.441406-9.679688-6.441406-15.554688s2.289062-11.398438 6.445312-15.554688zm0 0"/><path d="m419.074219 102.925781c2.558593 0 5.117187-.976562 7.070312-2.929687l.175781-.175782c3.90625-3.90625 3.90625-10.234374 0-14.140624s-10.234374-3.90625-14.140624 0l-.179688.175781c-3.902344 3.90625-3.902344 10.238281 0 14.140625 1.953125 1.953125 4.515625 2.929687 7.074219 2.929687zm0 0"/><path d="m393.457031 128.542969c2.558594 0 5.117188-.976563 7.070313-2.929688l.175781-.175781c3.90625-3.90625 3.90625-10.238281 0-14.140625-3.902344-3.90625-10.234375-3.90625-14.140625 0l-.179688.175781c-3.902343 3.90625-3.902343 10.238282 0 14.140625 1.953126 1.953125 4.515626 2.929688 7.074219 2.929688zm0 0"/><path d="m499.699219 440.300781c-7.933594-7.933593-18.480469-12.300781-29.699219-12.300781s-21.765625 4.367188-29.699219 12.300781c-7.933593 7.933594-12.300781 18.480469-12.300781 29.699219s4.367188 21.765625 12.300781 29.699219c7.933594 7.929687 18.480469 12.300781 29.699219 12.300781s21.765625-4.367188 29.699219-12.300781c7.933593-7.933594 12.300781-18.480469 12.300781-29.699219s-4.367188-21.765625-12.300781-29.699219zm-14.144531 45.253907c-4.152344 4.15625-9.679688 6.445312-15.554688 6.445312s-11.402344-2.289062-15.558594-6.445312c-4.152344-4.15625-6.441406-9.679688-6.441406-15.554688s2.289062-11.398438 6.445312-15.554688c4.152344-4.15625 9.679688-6.445312 15.554688-6.445312s11.402344 2.289062 15.554688 6.445312c4.15625 4.15625 6.445312 9.679688 6.445312 15.554688s-2.289062 11.398438-6.445312 15.554688zm0 0"/><path d="m426.320312 412.179688-.175781-.175782c-3.90625-3.90625-10.238281-3.90625-14.144531 0-3.902344 3.902344-3.902344 10.234375 0 14.140625l.179688.175781c1.953124 1.953126 4.511718 2.929688 7.070312 2.929688s5.117188-.976562 7.070312-2.929688c3.90625-3.90625 3.90625-10.234374 0-14.140624zm0 0"/><path d="m400.527344 386.386719c-3.90625-3.90625-10.238282-3.90625-14.144532 0-3.902343 3.902343-3.902343 10.234375 0 14.140625l.179688.175781c1.953125 1.953125 4.511719 2.929687 7.070312 2.929687 2.558594 0 5.117188-.976562 7.070313-2.929687 3.90625-3.902344 3.90625-10.234375 0-14.140625zm0 0"/><path d="m42 428c-11.21875 0-21.765625 4.367188-29.699219 12.300781-7.933593 7.933594-12.300781 18.480469-12.300781 29.699219s4.367188 21.765625 12.300781 29.699219c7.933594 7.929687 18.480469 12.300781 29.699219 12.300781s21.765625-4.367188 29.699219-12.300781c7.933593-7.933594 12.300781-18.480469 12.300781-29.699219s-4.367188-21.765625-12.300781-29.699219c-7.933594-7.929687-18.480469-12.300781-29.699219-12.300781zm15.554688 57.554688c-4.152344 4.15625-9.679688 6.445312-15.554688 6.445312s-11.402344-2.289062-15.558594-6.445312c-4.152344-4.15625-6.441406-9.679688-6.441406-15.554688s2.289062-11.398438 6.441406-15.554688c4.15625-4.15625 9.683594-6.445312 15.558594-6.445312s11.402344 2.289062 15.558594 6.445312c4.152344 4.15625 6.441406 9.679688 6.441406 15.554688s-2.289062 11.398438-6.445312 15.554688zm0 0"/><path d="m85.855469 412.003906-.175781.175782c-3.90625 3.90625-3.90625 10.234374 0 14.140624 1.953124 1.953126 4.511718 2.929688 7.070312 2.929688s5.117188-.976562 7.070312-2.929688l.175782-.175781c3.90625-3.90625 3.90625-10.238281 0-14.140625-3.902344-3.90625-10.234375-3.90625-14.140625 0zm0 0"/><path d="m111.472656 386.386719-.175781.175781c-3.90625 3.90625-3.90625 10.238281 0 14.140625 1.953125 1.953125 4.511719 2.929687 7.070313 2.929687 2.558593 0 5.117187-.976562 7.070312-2.929687l.175781-.175781c3.90625-3.90625 3.90625-10.238282 0-14.140625-3.902343-3.90625-10.234375-3.90625-14.140625 0zm0 0"/><path d="m12.300781 71.699219c7.933594 7.933593 18.480469 12.300781 29.699219 12.300781s21.765625-4.367188 29.699219-12.300781c7.933593-7.933594 12.300781-18.480469 12.300781-29.699219s-4.367188-21.765625-12.300781-29.699219c-7.933594-7.929687-18.480469-12.300781-29.699219-12.300781s-21.765625 4.367188-29.699219 12.300781c-7.933593 7.933594-12.300781 18.480469-12.300781 29.699219s4.367188 21.765625 12.300781 29.699219zm14.144531-45.253907c4.152344-4.15625 9.679688-6.445312 15.554688-6.445312s11.402344 2.289062 15.558594 6.445312c4.152344 4.15625 6.441406 9.679688 6.441406 15.554688s-2.289062 11.398438-6.445312 15.554688c-4.152344 4.15625-9.679688 6.445312-15.554688 6.445312s-11.402344-2.289062-15.554688-6.445312c-4.15625-4.15625-6.445312-9.679688-6.445312-15.554688s2.289062-11.398438 6.445312-15.554688zm0 0"/><path d="m85.679688 99.820312.175781.175782c1.953125 1.953125 4.511719 2.929687 7.070312 2.929687 2.558594 0 5.121094-.976562 7.070313-2.929687 3.90625-3.902344 3.90625-10.234375 0-14.140625l-.175782-.175781c-3.90625-3.90625-10.234374-3.90625-14.140624 0s-3.90625 10.234374 0 14.140624zm0 0"/><path d="m111.472656 125.613281c1.953125 1.953125 4.511719 2.929688 7.070313 2.929688 2.558593 0 5.121093-.976563 7.070312-2.929688 3.90625-3.902343 3.90625-10.234375 0-14.140625l-.175781-.175781c-3.90625-3.90625-10.238281-3.90625-14.140625 0-3.90625 3.902344-3.90625 10.234375 0 14.140625zm0 0"/><path d="m205.089844 215.089844c2.628906 0 5.210937-1.070313 7.070312-2.929688s2.929688-4.441406 2.929688-7.070312-1.070313-5.210938-2.929688-7.070313-4.441406-2.929687-7.070312-2.929687-5.210938 1.070312-7.070313 2.929687-2.929687 4.441407-2.929687 7.070313 1.070312 5.210937 2.929687 7.070312 4.441407 2.929688 7.070313 2.929688zm0 0"/></svg>