<?xml version="1.0"?>
<svg xmlns="http://www.w3.org/2000/svg" viewBox="0 0 64 64" width="512" height="512"><path d="m31.878 19h11.122v-6h3a3 3 0 0 0 0-6h-3v-4h-13a3 3 0 0 0 -3 3v11.823l1.15-.555a2.744 2.744 0 0 1 3.728 1.732z" fill="#f2a811"/><path d="m56 42a3 3 0 0 1 -6 0v-3h-5v4h-3a3 3 0 0 0 0 6h3v6h13a3 3 0 0 0 3-3v-13h-5z" fill="#10bde0"/><path d="m58 23h-13v4h3a3 3 0 0 1 0 6h-3v6h5v3a3 3 0 0 0 6 0v-3h5v-13a3 3 0 0 0 -3-3z" fill="#8ef059"/><path d="m42 49a3 3 0 0 1 0-6h3v-4h-16v13a3 3 0 0 0 3 3h13v-6z" fill="#e3d810"/><circle cx="16" cy="10" fill="#d9d9d9" r="7"/><path d="m31.878 19a2.744 2.744 0 0 0 -3.728-1.732l-1.15.555-5.478 2.645a6.988 6.988 0 0 0 -4.672-3.339 7.108 7.108 0 0 0 -8.235 5.181l-3.984 12.551a14.026 14.026 0 0 0 .6 10.047 14.031 14.031 0 0 1 -.223 12.077l-2.008 4.015h11a3.994 3.994 0 0 0 -3.061-3.878l.97-1.94a14.028 14.028 0 0 0 1.255-8.782l-.742-4.08a1.968 1.968 0 1 1 3.872-.7l1.358 7.471a21.512 21.512 0 0 1 .348 3.853v8.056h11a3.981 3.981 0 0 0 -.027-.466 3.722 3.722 0 0 0 -5.573-2.62l-.884.5 1.065-5.325a21.529 21.529 0 0 0 .419-4.224v-8.865l-1.224-14.081 7.577-3.619a2.719 2.719 0 0 0 1.525-3.3z" fill="#d9d9d9"/><path d="m58 22h-13a1 1 0 0 0 -1 1v4a1 1 0 0 0 1 1h3a2 2 0 0 1 0 4h-3a1 1 0 0 0 -1 1v5h-15a1 1 0 0 0 -1 1v13a4 4 0 0 0 4 4h26a4 4 0 0 0 4-4v-26a4 4 0 0 0 -4-4zm-10 12a4 4 0 0 0 0-8h-2v-2h12a2 2 0 0 1 2 2v12h-4a1 1 0 0 0 -1 1v3a2 2 0 0 1 -4 0v-3a1 1 0 0 0 -1-1h-4v-4zm-4 20h-12a2 2 0 0 1 -2-2v-12h14v2h-2a4 4 0 0 0 0 8h2zm16-2a2 2 0 0 1 -2 2h-12v-5a1 1 0 0 0 -1-1h-3a2 2 0 0 1 0-4h3a1 1 0 0 0 1-1v-3h3v2a4 4 0 0 0 8 0v-2h3z"/><path d="m3 62h11a1 1 0 0 0 1-1 4.972 4.972 0 0 0 -2.674-4.417l.478-.954a15.115 15.115 0 0 0 1.343-9.408l-.742-4.08a.969.969 0 0 1 .952-1.141.969.969 0 0 1 .954.794l1.358 7.472a20.611 20.611 0 0 1 .331 3.678v8.056a1 1 0 0 0 1 1h11a1 1 0 0 0 1-1 5.016 5.016 0 0 0 -.034-.582 4.428 4.428 0 0 0 -2.464-3.48 4.846 4.846 0 0 0 -3.606-.32l.666-3.328a22.622 22.622 0 0 0 .438-4.425v-8.951l-1.168-13.391 6.939-3.311a3.737 3.737 0 0 0 2.213-3.212h10.016a1 1 0 0 0 1-1v-5h2a4 4 0 0 0 0-8h-2v-3a1 1 0 0 0 -1-1h-13a4 4 0 0 0 -4 4v11.2l-4.137 2a8.15 8.15 0 0 0 -2.276-2.052 8 8 0 1 0 -7.689-.286 8.019 8.019 0 0 0 -4.236 5.152l-3.984 12.545a15 15 0 0 0 .643 10.763 12.973 12.973 0 0 1 -.208 11.216l-2.008 4.015a1 1 0 0 0 .895 1.447zm26.953-40.612-.03.013-13.475 6.429a1.712 1.712 0 0 1 -2.448-1.545 1.722 1.722 0 0 1 .967-1.541l13.583-6.56a1.727 1.727 0 0 1 1.659.138 1.721 1.721 0 0 1 .791 1.464 1.75 1.75 0 0 1 -1.047 1.602zm.047-17.388h12v3a1 1 0 0 0 1 1h3a2 2 0 0 1 0 4h-3a1 1 0 0 0 -1 1v5h-9.451a3.737 3.737 0 0 0 -4.549-1.738v-10.262a2 2 0 0 1 2-2zm-20 6a6 6 0 1 1 6 6 6.006 6.006 0 0 1 -6-6zm-4.1 47.432a14.968 14.968 0 0 0 .24-12.938 13 13 0 0 1 -.558-9.33l4-12.6a6.144 6.144 0 0 1 7.081-4.452 5.9 5.9 0 0 1 3.347 1.976l-5.91 2.855a3.733 3.733 0 0 0 -2.1 3.342 3.706 3.706 0 0 0 5.31 3.35l4.6-2.193 1.09 12.558v8.865a20.7 20.7 0 0 1 -.4 4.032l-1.066 5.326a1 1 0 0 0 1.477 1.065l.884-.506a2.846 2.846 0 0 1 2.7-.059 2.512 2.512 0 0 1 1.216 1.277h-8.811v-7.056a22.572 22.572 0 0 0 -.364-4.036l-1.358-7.471a2.968 2.968 0 1 0 -5.84 1.062l.743 4.08a13.107 13.107 0 0 1 -1.166 8.155l-.971 1.941a1 1 0 0 0 .656 1.425 2.989 2.989 0 0 1 2.128 1.9h-8.21z"/><path d="m33 31.586-3.293-3.293-1.414 1.414 7 7a1 1 0 0 0 1.414 0l7-7-1.414-1.414-3.293 3.293v-5.586h-2v7.586l-1 1-1-1v-3.586h-2z"/><path d="m33 26h2v2h-2z"/><path d="m33 22h2v2h-2z"/><path d="m37 22h2v2h-2z"/></svg>
