<svg height="512pt" viewBox="0 0 512 512" width="512pt" xmlns="http://www.w3.org/2000/svg"><g fill-rule="evenodd"><path d="m332.667969 512h-150c-16.570313 0-30-13.429688-30-30v-392l14.046875-14.824219-14.046875-15.175781v-30c0-16.570312 13.429687-30 30-30h150c16.566406 0 30 13.429688 30 30v30l-13.167969 15 13.167969 15v392c0 16.570312-13.433594 30-30 30zm0 0" fill="#2e52b9"/><path d="m362.667969 30c0-16.570312-13.433594-30-30-30h-74.984375v512h74.984375c16.566406 0 30-13.429688 30-30v-392l-13.167969-15 13.167969-15zm0 0" fill="#00347b"/><path d="m197.664062 452c8.265626 0 15-6.738281 15-15s-6.734374-15-15-15c-8.257812 0-15 6.738281-15 15 .003907 8.261719 6.742188 15 15 15zm0 0" fill="#a4ffb3"/><path d="m257.664062 452c8.265626 0 15-6.738281 15-15s-6.734374-15-15-15c-8.261718 0-15 6.738281-15 15 .003907 8.261719 6.742188 15 15 15zm0 0" fill="#a4ffb3"/><path d="m317.667969 452c8.261719 0 15-6.738281 15-15s-6.738281-15-15-15-15 6.738281-15 15 6.738281 15 15 15zm0 0" fill="#00cab1"/><path d="m197.664062 392c8.265626 0 15-6.738281 15-15s-6.734374-15-15-15c-8.257812 0-15 6.738281-15 15 .003907 8.261719 6.742188 15 15 15zm0 0" fill="#a4ffb3"/><path d="m257.664062 392c8.265626 0 15-6.738281 15-15s-6.734374-15-15-15c-8.261718 0-15 6.738281-15 15 .003907 8.261719 6.742188 15 15 15zm0 0" fill="#a4ffb3"/><path d="m317.667969 392c8.261719 0 15-6.738281 15-15s-6.738281-15-15-15-15 6.738281-15 15 6.738281 15 15 15zm0 0" fill="#00cab1"/><path d="m197.664062 332c8.265626 0 15-6.738281 15-15s-6.734374-15-15-15c-8.257812 0-15 6.738281-15 15 .003907 8.261719 6.742188 15 15 15zm0 0" fill="#a4ffb3"/><path d="m257.664062 332c8.265626 0 15-6.738281 15-15s-6.734374-15-15-15c-8.261718 0-15 6.738281-15 15 .003907 8.261719 6.742188 15 15 15zm0 0" fill="#a4ffb3"/><path d="m317.667969 332c8.261719 0 15-6.738281 15-15s-6.738281-15-15-15-15 6.738281-15 15 6.738281 15 15 15zm0 0" fill="#00cab1"/><path d="m197.664062 272c8.265626 0 15-6.738281 15-15s-6.734374-15-15-15c-8.257812 0-15 6.738281-15 15 .003907 8.261719 6.742188 15 15 15zm0 0" fill="#a4ffb3"/><path d="m257.664062 272c8.265626 0 15-6.738281 15-15s-6.734374-15-15-15c-8.261718 0-15 6.738281-15 15 .003907 8.261719 6.742188 15 15 15zm0 0" fill="#a4ffb3"/><path d="m317.667969 272c8.261719 0 15-6.738281 15-15s-6.738281-15-15-15-15 6.738281-15 15 6.738281 15 15 15zm0 0" fill="#00cab1"/></g><path d="m152.667969 60h210v30h-210zm0 0" fill="#f5db60"/><path d="m257.683594 60h104.980468v30h-104.980468zm0 0" fill="#e79d45"/><path d="m257.683594 242v30c8.253906-.011719 14.980468-6.742188 14.980468-15s-6.726562-14.988281-14.980468-15zm0 0" fill="#00cab1" fill-rule="evenodd"/><path d="m257.683594 302v30c8.253906-.011719 14.980468-6.742188 14.980468-15s-6.726562-14.988281-14.980468-15zm0 0" fill="#00cab1" fill-rule="evenodd"/><path d="m257.683594 362v30c8.253906-.011719 14.980468-6.742188 14.980468-15s-6.726562-14.988281-14.980468-15zm0 0" fill="#00cab1" fill-rule="evenodd"/><path d="m257.683594 422v30c8.253906-.011719 14.980468-6.742188 14.980468-15s-6.726562-14.988281-14.980468-15zm0 0" fill="#00cab1" fill-rule="evenodd"/><path d="m80.472656 295.964844c-5.671875 0-11.101562-3.234375-13.632812-8.722656-4.476563-9.710938-6.839844-20.492188-6.839844-31.183594 0-10.75 2.265625-21.160156 6.730469-30.941406 3.4375-7.535157 12.335937-10.855469 19.875-7.417969 7.535156 3.441406 10.855469 12.339843 7.414062 19.875-2.664062 5.84375-4.019531 12.0625-4.019531 18.484375 0 6.386718 1.414062 12.828125 4.085938 18.625 3.46875 7.523437.179687 16.433594-7.34375 19.902344-2.035157.9375-4.167969 1.378906-6.269532 1.378906zm0 0" fill="#a4ffb3"/><path d="m34.550781 336.539062c-4.890625 0-9.683593-2.386718-12.5625-6.78125-14.386719-21.964843-21.988281-47.449218-21.988281-73.699218 0-26.3125 7.632812-51.839844 22.078125-73.832032 4.546875-6.921874 13.847656-8.847656 20.769531-4.300781 6.925782 4.546875 8.851563 13.847657 4.304688 20.769531-11.222656 17.085938-17.152344 36.921876-17.152344 57.363282 0 20.394531 5.90625 40.195312 17.082031 57.261718 4.539063 6.929688 2.601563 16.226563-4.328125 20.765626-2.535156 1.660156-5.386718 2.453124-8.203125 2.453124zm0 0" fill="#a4ffb3"/><path d="m431.527344 295.964844c-2.101563 0-4.234375-.441406-6.269532-1.378906-7.523437-3.46875-10.8125-12.378907-7.34375-19.902344 2.671876-5.796875 4.085938-12.238282 4.085938-18.625 0-6.421875-1.355469-12.640625-4.019531-18.484375-3.441407-7.535157-.121094-16.433594 7.414062-19.875 7.535157-3.4375 16.433594-.117188 19.875 7.417969 4.464844 9.78125 6.730469 20.191406 6.730469 30.941406 0 10.691406-2.363281 21.472656-6.839844 31.183594-2.53125 5.488281-7.960937 8.722656-13.632812 8.722656zm0 0" fill="#00cab1"/><path d="m477.449219 336.539062c-2.816407 0-5.667969-.792968-8.203125-2.453124-6.929688-4.539063-8.867188-13.835938-4.332032-20.769532 11.179688-17.0625 17.085938-36.863281 17.085938-57.257812 0-20.441406-5.929688-40.277344-17.152344-57.359375-4.546875-6.925781-2.621094-16.226563 4.304688-20.773438 6.921875-4.546875 16.226562-2.621093 20.769531 4.304688 14.445313 21.988281 22.078125 47.519531 22.078125 73.828125 0 26.253906-7.601562 51.738281-21.988281 73.699218-2.878907 4.394532-7.671875 6.78125-12.5625 6.78125zm0 0" fill="#00cab1"/></svg>