<svg id="Warstwa_1" data-name="Warstwa 1" xmlns="http://www.w3.org/2000/svg" viewBox="0 0 607.14 150"><defs><style>.cls-1{fill:transparent;}.cls-2{fill:#272424;}.cls-3{fill:#009d00;}</style></defs><title>INNPoland_logo</title><rect class="cls-1" width="607.14" height="150"/><path class="cls-2" d="M34.28,109.4V41H53.49v68.4H34.28Z"/><path class="cls-2" d="M105,109.4L94.32,83.17c-3.46-8.65-6.82-17.68-9.8-26.52H84.33c0.58,9.32.77,18.64,0.77,28V109.4H66.75V41h28l10.57,26.23c3.55,8.65,6.92,17.68,9.8,26.51h0.19c-0.48-9.32-.77-18.64-0.77-28V41h18.35v68.4H105Z"/><path class="cls-2" d="M184.43,109.4L173.76,83.17c-3.46-8.65-6.82-17.68-9.8-26.52h-0.19c0.58,9.32.77,18.64,0.77,28V109.4H146.19V41h28l10.57,26.23c3.55,8.65,6.92,17.68,9.8,26.51h0.19c-0.48-9.32-.77-18.64-0.77-28V41h18.35v68.4H184.43Z"/><path class="cls-3" d="M244.51,71.5a11.07,11.07,0,1,1-11-11A11.28,11.28,0,0,1,244.51,71.5Zm0,28a11.07,11.07,0,1,1-11-11A11.28,11.28,0,0,1,244.51,99.5Z"/><path class="cls-2" d="M283.42,41c18.35,0,27.19,9.13,27.19,23.34s-8.84,23.44-27.19,23.44h-9.7V109.4H254.5V41h28.92Zm-9.7,31.7h7c7.21,0,10.09-3.17,10.09-8.36s-2.88-8.26-10.09-8.26h-7V72.7Z"/><path class="cls-2" d="M369.3,85c0,15.85-10.66,25.94-27.28,25.94S314.73,100.85,314.73,85,325.4,59.06,342,59.06,369.3,69.14,369.3,85Zm-35.16,0c0,7.69,2.88,12.2,7.88,12.2s7.88-4.51,7.88-12.2S347,72.79,342,72.79,334.14,77.31,334.14,85Z"/><path class="cls-2" d="M376.88,109.4V41h18.45v68.4H376.88Z"/><path class="cls-2" d="M451.14,79.33V95.18c0,6.53.48,10.66,1.54,14.22H436.06a23.9,23.9,0,0,1-.77-6.15H435.1c-3.84,5-9.22,7.49-15.85,7.49-10.66,0-17-6.63-17-15.27s5.38-13.74,19.89-15.95c3.55-.58,8.36-1.06,11.24-1.25V76.54c0-4.8-2.31-6.73-5.76-6.73s-5.67,2-5.76,6.24H404.26c0.58-9,7.11-17,23.54-17C443.75,59.06,451.14,66.36,451.14,79.33Zm-17.77,8.17a73.88,73.88,0,0,0-7.49,1.06c-4,.86-5.57,2.69-5.57,5.67s1.83,5.09,5.38,5.09A7.2,7.2,0,0,0,431.26,97c1.73-1.92,2.11-4,2.11-7.69V87.49Z"/><path class="cls-2" d="M510.32,79.33V109.4H491.87V81.63c0-5.28-1.92-8.17-5.76-8.17-4.23,0-6.63,3.55-6.63,11.43v24.5H461V60.59h17.1v5.57h0.19a17.08,17.08,0,0,1,14.12-6.92C503.4,59.25,510.32,66.16,510.32,79.33Z"/><path class="cls-2" d="M551.91,109.4v-5.57h-0.19a15.09,15.09,0,0,1-13.07,7c-12.87,0-21.23-10.09-21.23-25.84s8.07-25.84,20.75-25.84c5,0,9.9,2,12.78,6.05h0.19V41h18.45v68.4H551.91ZM536.73,85c0,7.3,3,11.91,7.78,11.91,4.61,0,7.59-4.61,7.59-11.91s-3-11.91-7.59-11.91C539.71,73.08,536.73,77.69,536.73,85Z"/></svg>