<svg xmlns="http://www.w3.org/2000/svg" viewBox="0 0 563.7 267.9"><path d="M385.4 35.1l-1.2 4.7c-1.3-0.7-3.2-1.1-4.8-1.1 -4.2 0-7.2 3.2-7.2 8.4v15.5h-4.8V34.7h4.7v3.7c1.9-2.7 4.8-4.2 8.1-4.2C382.3 34.1 383.9 34.4 385.4 35.1zM417.2 62.5h-4.8v-3.7c-2.2 2.6-5.4 4.3-9.8 4.3 -7.8 0-13.9-6.1-13.9-14.5s6.1-14.5 13.9-14.5c4.4 0 7.6 1.7 9.8 4.3v-3.7h4.8V62.5zM393.6 48.6c0 5.5 3.9 10 9.6 10 5.6 0 9.5-4.3 9.5-10 0-5.7-3.9-10-9.5-10C397.4 38.7 393.6 43.1 393.6 48.6zM447.8 38.5V20.4h4.8v42.1h-4.8v-3.7c-2.2 2.6-5.4 4.3-9.8 4.3 -7.8 0-13.9-6.1-13.9-14.5s6.1-14.5 13.9-14.5C442.4 34.1 445.6 35.8 447.8 38.5zM429 48.6c0 5.5 3.9 10 9.6 10 5.6 0 9.5-4.3 9.5-10 0-5.7-3.9-10-9.5-10C432.8 38.7 429 43.1 429 48.6zM468.5 25c0 1.9-1.5 3.3-3.4 3.3 -1.9 0-3.4-1.4-3.4-3.3 0-1.9 1.5-3.4 3.4-3.4C467 21.5 468.5 23 468.5 25zM467.5 62.5h-4.8V34.7h4.8V62.5zM504.9 48.6c0 8.3-6.3 14.5-14.7 14.5 -8.4 0-14.7-6.2-14.7-14.5 0-8.3 6.3-14.5 14.7-14.5C498.6 34.1 504.9 40.4 504.9 48.6zM480.4 48.6c0 5.8 4.2 10 9.8 10 5.6 0 9.8-4.2 9.8-10 0-5.8-4.2-10-9.8-10C484.6 38.7 480.4 42.8 480.4 48.6zM539.2 71.6c-76.2 14.2-193 37.3-312.3 71.8 7.9-10.1 49.1-38.5 104.8-52.9 4.4-1.1 6.2-6.7 9.1-15.3 1.7-5.2 3.4-11.1 5.4-18.1 1.5-5.3-2.4-6-4.6-5.7 -22.9 3.8-130.8 29-160.2 105.8 -18.2 5.7-36.6 11.8-55 18.1 23.2-23.9 46.8-58.3 49.6-65.1 1.8-4.4 2.1-7.1 1.7-9.7 -1-5.5-6-14.7-10.2-19.1 -4.2-4.5-7.1-5.3-12.1-5.6 -24.1-1.4-88.3 23.6-95.9 27.4 -3.9 1.9-1.8 5.6-1.1 7.8 0.7 2 4.2 8.7 10.2 15.7 5.8 6.8 8.2 5.8 22.4-0.2 21.1-8.9 37.7-14 43.5-14.9C99.4 160.7 47.2 201.4 25.1 218.8c-4.3 3.4-5.1 6.4-3.8 10.3 1.1 3.2 7.8 13.5 11.1 16.2 3.3 2.7 7.6 2.1 14.2-0.4 9-3.4 54-25.5 133.7-51.3 29.3 61.7 106.6 41.2 128 25.8 6.3-4.5 8.1-11.8 9.5-16.1 1.5-4.4 4.7-15 6.7-21.3 1.8-5.9-0.5-8.1-4.4-5.6 -41.9 27.3-87.9 27.5-102.1 5.5 0 0 0 0 0 0l0 0c51.6-15.2 103.5-27.8 155.1-38.8 -13.7 30.9-17.2 61.8-17.3 76 -0.1 14.6 12 10.5 19.5 7.7 7.6-2.9 10.9-8.2 11.3-10.6 13.2-64.8 26.2-81.4 26.2-81.4 36.3-7.4 101.3-19.7 116.2-22.4 1.9-0.4 2.9-0.5 5.2-4.9 2.6-5 8.9-22.5 9.9-30.5C544.9 71.4 543.4 70.8 539.2 71.6zM126.4 175.3l0.1 0c-0.1 0-0.1 0-0.1 0S126.3 175.3 126.4 175.3z" fill="#FFF"/></svg>