<?xml version="1.0" encoding="utf-8"?>
<!-- Generator: Adobe Illustrator 16.0.0, SVG Export Plug-In . SVG Version: 6.00 Build 0)  -->
<!DOCTYPE svg PUBLIC "-//W3C//DTD SVG 1.1//EN" "http://www.w3.org/Graphics/SVG/1.1/DTD/svg11.dtd">
<svg version="1.1" xmlns="http://www.w3.org/2000/svg" xmlns:xlink="http://www.w3.org/1999/xlink" x="0px" y="0px" width="292px"
	 height="44px" viewBox="0 0 292 44" enable-background="new 0 0 292 44" xml:space="preserve">
<g id="Layer_2">
</g>
<g id="Layer_1">
	<g>
		<path fill="#C4E5D8" d="M16.877,7.884h6.922l5.503,14.932l5.801-14.932h7.01l4.083,27.942h-7.027l-1.98-16.091h-0.07
			l-6.502,16.091H27.83l-6.222-16.091h-0.07l-2.261,16.091h-6.993L16.877,7.884z"/>
		<path fill="#C4E5D8" d="M57.218,30.979l-1.857,4.848h-7.46L58.304,7.884h7.67l10.192,27.942h-7.495l-1.769-4.848H57.218z
			 M62.139,16.515h-0.07l-2.907,8.925h5.849L62.139,16.515z"/>
		<path fill="#C4E5D8" d="M82.246,7.884h6.923l5.503,14.932l5.801-14.932h7.01l4.083,27.942h-7.028l-1.98-16.091h-0.07
			l-6.501,16.091h-2.787l-6.222-16.091h-0.07l-2.26,16.091h-6.993L82.246,7.884z"/>
		<path fill="#FFFFFF" d="M130.924,15.325c-1.412-1.186-3.044-1.791-4.898-1.815c-0.736,0-1.43,0.185-2.081,0.554
			c-0.7,0.381-1.062,0.965-1.086,1.752c0.025,0.774,0.436,1.358,1.231,1.751c0.732,0.394,1.445,0.685,2.14,0.875l1.931,0.555
			c1.959,0.512,3.551,1.341,4.775,2.484c1.236,1.18,1.866,2.866,1.89,5.058c0,1.371-0.196,2.711-0.589,4.022
			c-0.404,1.3-1.16,2.438-2.266,3.414c-2.284,1.752-4.889,2.616-7.815,2.592c-3.557-0.048-6.786-1.104-9.688-3.167l3.104-5.832
			c0.938,0.783,1.937,1.441,2.996,1.976c1.082,0.581,2.231,0.873,3.446,0.873c0.891,0,1.69-0.233,2.4-0.698
			c0.709-0.44,1.076-1.138,1.101-2.091c0-0.512-0.153-0.947-0.46-1.305c-0.319-0.37-0.728-0.661-1.225-0.876
			c-1.073-0.44-2.062-0.762-2.969-0.965c-1.084-0.31-2.063-0.662-2.938-1.054c-0.909-0.37-1.684-0.822-2.325-1.358
			c-0.653-0.536-1.143-1.246-1.469-2.128c-0.385-0.87-0.577-1.954-0.577-3.252c0.024-2.86,0.924-5.106,2.701-6.739
			c1.741-1.656,4.012-2.497,6.814-2.52c3.053,0.024,5.938,0.79,8.657,2.298L130.924,15.325z"/>
		<path fill="#FFFFFF" d="M149.372,35.826h-7.236V14.035h-5.816V7.884h18.873v6.151h-5.82V35.826z"/>
		<path fill="#FFFFFF" d="M162.945,30.979l-1.857,4.848h-7.46l10.402-27.942h7.67l10.192,27.942h-7.495l-1.769-4.848H162.945z
			 M167.866,16.515h-0.069l-2.907,8.925h5.849L167.866,16.515z"/>
		<path fill="#FFFFFF" d="M207.797,35.826h-8.878l-6.712-10.749h-0.088v10.749h-7.236V7.884h10.725c2.812,0,5.106,0.682,6.882,2.044
			c1.788,1.376,2.693,3.56,2.717,6.552c0,1.955-0.502,3.662-1.505,5.122c-1.002,1.424-2.472,2.347-4.408,2.769L207.797,35.826z
			 M192.119,20.415h0.708c0.63,0,1.242-0.048,1.834-0.146c0.569-0.072,1.103-0.236,1.599-0.491c0.497-0.242,0.89-0.599,1.181-1.072
			c0.303-0.448,0.455-1.042,0.455-1.78c0-0.775-0.151-1.399-0.455-1.872c-0.291-0.472-0.684-0.817-1.181-1.036
			c-0.496-0.254-1.029-0.43-1.599-0.526c-0.303-0.048-0.599-0.073-0.89-0.073c-0.303,0-0.618,0-0.945,0h-0.708V20.415z"/>
		<path fill="#FFFFFF" d="M221.057,35.826h-7.236V14.035h-5.816V7.884h18.872v6.151h-5.82V35.826z"/>
		<path fill="#FFFFFF" d="M253.542,7.884v15.709c0.024,1.81-0.106,3.554-0.389,5.229c-0.319,1.702-1.138,3.246-2.459,4.633
			c-1.167,1.134-2.56,1.938-4.175,2.407c-1.616,0.471-3.244,0.706-4.883,0.706c-1.627,0-3.237-0.235-4.83-0.706
			c-1.616-0.47-3.025-1.273-4.229-2.407c-1.309-1.387-2.123-2.931-2.441-4.633c-0.308-1.676-0.449-3.42-0.424-5.229V7.884h7.235
			v14.714c0,0.917,0.046,1.804,0.137,2.661c0.08,0.893,0.269,1.725,0.567,2.497c0.309,0.712,0.778,1.292,1.408,1.737
			c0.63,0.472,1.489,0.706,2.576,0.706c1.099,0,1.975-0.234,2.628-0.706c0.629-0.445,1.099-1.025,1.408-1.737
			c0.309-0.772,0.498-1.604,0.566-2.497c0.046-0.857,0.069-1.743,0.069-2.661V7.884H253.542z"/>
		<path fill="#FFFFFF" d="M258.686,7.884h10.979c3.028,0,5.448,0.718,7.26,2.153c1.824,1.484,2.753,3.83,2.79,7.04
			c-0.083,6.394-3.329,9.554-9.736,9.482h-4.059v9.268h-7.235V7.884z M265.921,20.698h1.235c0.666,0,1.326-0.023,1.979-0.072
			c0.642-0.024,1.198-0.144,1.67-0.361c0.497-0.229,0.89-0.572,1.181-1.03c0.278-0.445,0.417-1.089,0.417-1.932
			c0-0.891-0.14-1.583-0.417-2.077c-0.243-0.47-0.612-0.812-1.108-1.029c-0.472-0.216-1.029-0.35-1.67-0.397
			c-0.654-0.036-1.338-0.054-2.052-0.054h-1.235V20.698z"/>
	</g>
</g>
</svg>
