<?xml version="1.0" encoding="UTF-8" standalone="no"?>
<!-- Generator: Adobe Illustrator 21.0.0, SVG Export Plug-In . SVG Version: 6.00 Build 0)  -->

<svg
   xmlns:dc="http://purl.org/dc/elements/1.1/"
   xmlns:cc="http://creativecommons.org/ns#"
   xmlns:rdf="http://www.w3.org/1999/02/22-rdf-syntax-ns#"
   xmlns:svg="http://www.w3.org/2000/svg"
   xmlns="http://www.w3.org/2000/svg"
   xmlns:sodipodi="http://sodipodi.sourceforge.net/DTD/sodipodi-0.dtd"
   xmlns:inkscape="http://www.inkscape.org/namespaces/inkscape"
   version="1.1"
   id="Layer_1"
   x="0px"
   y="0px"
   viewBox="0 0 800 600"
   style="enable-background:new 0 0 800 600;"
   xml:space="preserve"
   sodipodi:docname="grafika_box_dom_3kolory.svg"
   inkscape:version="0.91 r13725"><metadata
     id="metadata66"><rdf:RDF><cc:Work
         rdf:about=""><dc:format>image/svg+xml</dc:format><dc:type
           rdf:resource="http://purl.org/dc/dcmitype/StillImage" /><dc:title></dc:title></cc:Work></rdf:RDF></metadata><defs
     id="defs64"><filter
       style="color-interpolation-filters:sRGB"
       inkscape:label="Blur"
       id="filter1048-9-6"><feGaussianBlur
         stdDeviation="0.51 0.5"
         result="blur"
         id="feGaussianBlur1046-9-9" /></filter><filter
       style="color-interpolation-filters:sRGB"
       inkscape:label="Blur"
       id="filter1048-9"><feGaussianBlur
         stdDeviation="0.51 0.5"
         result="blur"
         id="feGaussianBlur1046-9" /></filter><filter
       style="color-interpolation-filters:sRGB"
       inkscape:label="Blur"
       id="filter1032-17-5"><feGaussianBlur
         stdDeviation="0.51 0.5"
         result="blur"
         id="feGaussianBlur1030-4-2" /></filter><filter
       style="color-interpolation-filters:sRGB"
       inkscape:label="Blur"
       id="filter1036-5-7"><feGaussianBlur
         stdDeviation="0.51 0.5"
         result="blur"
         id="feGaussianBlur1034-6-8" /></filter><filter
       style="color-interpolation-filters:sRGB"
       inkscape:label="Blur"
       id="filter1032-17"><feGaussianBlur
         stdDeviation="0.51 0.5"
         result="blur"
         id="feGaussianBlur1030-4" /></filter><filter
       style="color-interpolation-filters:sRGB"
       inkscape:label="Blur"
       id="filter1036-5"><feGaussianBlur
         stdDeviation="0.51 0.5"
         result="blur"
         id="feGaussianBlur1034-6" /></filter></defs><sodipodi:namedview
     pagecolor="#000000"
     bordercolor="#666666"
     borderopacity="1"
     objecttolerance="10"
     gridtolerance="10"
     guidetolerance="10"
     inkscape:pageopacity="0"
     inkscape:pageshadow="2"
     inkscape:window-width="2560"
     inkscape:window-height="1056"
     id="namedview62"
     showgrid="false"
     inkscape:zoom="1.0111627"
     inkscape:cx="300.13826"
     inkscape:cy="330.59973"
     inkscape:window-x="0"
     inkscape:window-y="24"
     inkscape:window-maximized="1"
     inkscape:current-layer="Layer_1" /><style
     type="text/css"
     id="style39">
	.st0{fill:none;stroke:#F15A24;stroke-width:7;stroke-miterlimit:10;}
	.st1{fill:none;stroke:#F15A24;stroke-width:8;stroke-miterlimit:10;}
</style><path
     style="fill:none;stroke:#f15a24;stroke-width:7;stroke-miterlimit:10"
     inkscape:connector-curvature="0"
     id="path41"
     d="m 86.77452,379 c -1.2,0 -2.3,0 -3.5,0"
     class="st0" /><path
     style="fill:none;stroke:#f15a24;stroke-width:7;stroke-miterlimit:10"
     inkscape:connector-curvature="0"
     id="path43"
     d="m 106.37452,379 c -2,0 -4,0 -6,0"
     class="st0" /><path
     style="fill:none;stroke:#f15a24;stroke-width:7;stroke-miterlimit:10"
     inkscape:connector-curvature="0"
     id="path45"
     d="m 127.27452,379 c -2.3,0 -4.7,0 -7,0"
     class="st0" /><path
     style="fill:none;stroke:#f69562;stroke-width:7;stroke-miterlimit:10;stroke-opacity:1"
     inkscape:connector-curvature="0"
     id="path47"
     d="m 150.77452,379 c -3.2,0 -6.5,0 -9.7,0"
     class="st0" /><path
     style="fill:none;stroke:#f69562;stroke-width:7;stroke-miterlimit:10;stroke-opacity:1"
     inkscape:connector-curvature="0"
     id="path49"
     d="m 177.17452,379 c -3.9,0 -7.9,0 -11.8,0"
     class="st0" /><path
     style="fill:none;stroke:#f69562;stroke-width:7;stroke-miterlimit:10;stroke-opacity:1"
     inkscape:connector-curvature="0"
     id="path51"
     d="m 207.67452,379 c -5.5,0 -11.1,0 -16.6,0"
     class="st0" /><path
     style="fill:none;stroke:#ffbd77;stroke-width:7;stroke-miterlimit:10;stroke-opacity:1"
     inkscape:connector-curvature="0"
     id="path53"
     d="m 243.77452,379 c -7.2,0 -14.4,0 -21.6,0"
     class="st0" /><path
     style="fill:none;stroke:#ffbd77;stroke-width:8;stroke-miterlimit:10;stroke-opacity:1"
     inkscape:connector-curvature="0"
     id="path55"
     d="m 720.07452,378.9 c -15.7,0.1 -31.7,0.1 -47.5,0 l 0,-61.5 -47.8,-33.1 -43,33.1 0,61.5 c -52.4,0.1 -272.26501,0.1 -323.96501,0.1"
     class="st1"
     sodipodi:nodetypes="ccccccc" /><path
     inkscape:connector-curvature="0"
     style="opacity:1;fill:#d04400;fill-opacity:0.92941176;fill-rule:evenodd;stroke:#ffffff;stroke-width:0.5105412;stroke-miterlimit:4;stroke-dasharray:0, 5.6159535;stroke-dashoffset:7.55999994;stroke-opacity:1;filter:url(#filter1048-9)"
     d="m 39.428904,22.428514 c -18.20286,0 -32.8574199,18.34551 -32.8574199,41.13281 l 0,183.152336 65.7148399,0 0,-183.152336 c 0,-22.7873 -14.65456,-41.13281 -32.85742,-41.13281 z"
     id="path1015-2"
     transform="matrix(0.13240461,0,0,0.13240461,606.72226,312.46631)" /><path
     inkscape:connector-curvature="0"
     style="opacity:1;fill:#f69562;fill-opacity:1;fill-rule:evenodd;stroke:#ffffff;stroke-width:0.5105412;stroke-miterlimit:4;stroke-dasharray:0, 5.61595357;stroke-dashoffset:7.55999994;stroke-opacity:1;filter:url(#filter1036-5)"
     d="m 39.428904,14.02461 c -18.20286,0 -32.8574199,18.34552 -32.8574199,41.13281 l 0,98.86719 61.3535099,0 c 1.47874,0 2.93283,0.0894 4.36133,0.24609 l 0,-99.11328 c 0,-22.78729 -14.65456,-41.13281 -32.85742,-41.13281 z"
     id="path1019-8"
     transform="matrix(0.13240461,0,0,0.13240461,622.50945,324.73877)" /><path
     inkscape:connector-curvature="0"
     style="opacity:1;fill:#ffbd77;fill-opacity:1;fill-rule:evenodd;stroke:#ffffff;stroke-width:0.5105412;stroke-miterlimit:4;stroke-dasharray:0, 5.61595354;stroke-dashoffset:7.55999994;stroke-opacity:1;filter:url(#filter1032-17)"
     d="M 39.428904,8 C 21.226044,8 6.5714841,26.34552 6.5714841,49.13281 l 0,38.86719 65.7148399,0 0,-38.86719 C 72.286324,26.34552 57.631764,8 39.428904,8 Z"
     id="path1024-5"
     transform="matrix(0.13240461,0,0,0.13240461,638.59862,333.48072)" /><path
     inkscape:connector-curvature="0"
     style="opacity:1;fill:#d04400;fill-opacity:0.92941176;fill-rule:evenodd;stroke:#ffffff;stroke-width:0.5105412;stroke-miterlimit:4;stroke-dasharray:0, 5.6159535;stroke-dashoffset:7.55999994;stroke-opacity:1;filter:url(#filter1048-9-6)"
     d="m 39.428904,22.428514 c -18.20286,0 -32.8574199,18.34551 -32.8574199,41.13281 l 0,183.152336 65.7148399,0 0,-183.152336 c 0,-22.7873 -14.65456,-41.13281 -32.85742,-41.13281 z"
     id="path1015-2-3"
     transform="matrix(0.13240461,0,0,-0.13240461,606.72226,383.25512)" /><path
     inkscape:connector-curvature="0"
     style="opacity:1;fill:#f69562;fill-opacity:1;fill-rule:evenodd;stroke:#ffffff;stroke-width:0.5105412;stroke-miterlimit:4;stroke-dasharray:0, 5.61595357;stroke-dashoffset:7.55999994;stroke-opacity:1;filter:url(#filter1036-5-7)"
     d="m 39.428904,14.02461 c -18.20286,0 -32.8574199,18.34552 -32.8574199,41.13281 l 0,98.86719 61.3535099,0 c 1.47874,0 2.93283,0.0894 4.36133,0.24609 l 0,-99.11328 c 0,-22.78729 -14.65456,-41.13281 -32.85742,-41.13281 z"
     id="path1019-8-8"
     transform="matrix(0.13240461,0,0,-0.13240461,622.50945,370.94925)" /><path
     inkscape:connector-curvature="0"
     style="opacity:1;fill:#ffbd77;fill-opacity:1;fill-rule:evenodd;stroke:#ffffff;stroke-width:0.5105412;stroke-miterlimit:4;stroke-dasharray:0, 5.61595354;stroke-dashoffset:7.55999994;stroke-opacity:1;filter:url(#filter1032-17-5)"
     d="M 39.428904,8 C 21.226044,8 6.5714841,26.34552 6.5714841,49.13281 l 0,38.86719 65.7148399,0 0,-38.86719 C 72.286324,26.34552 57.631764,8 39.428904,8 Z"
     id="path1024-5-4"
     transform="matrix(0.13240461,0,0,-0.13240461,638.59862,362.08015)" /></svg>