<?xml version="1.0" encoding="UTF-8" standalone="no"?>
<svg
   xmlns:dc="http://purl.org/dc/elements/1.1/"
   xmlns:cc="http://creativecommons.org/ns#"
   xmlns:rdf="http://www.w3.org/1999/02/22-rdf-syntax-ns#"
   xmlns:svg="http://www.w3.org/2000/svg"
   xmlns="http://www.w3.org/2000/svg"
   viewBox="0 0 314.66666 210.94667"
   height="210.94667"
   width="314.66666"
   xml:space="preserve"
   version="1.1"
   id="svg2"><metadata
     id="metadata8"><rdf:RDF><cc:Work
         rdf:about=""><dc:format>image/svg+xml</dc:format><dc:type
           rdf:resource="http://purl.org/dc/dcmitype/StillImage" /></cc:Work></rdf:RDF></metadata><defs
     id="defs6" /><g
     transform="matrix(1.3333333,0,0,-1.3333333,0,210.94667)"
     id="g10"><g
       transform="scale(0.1)"
       id="g12"><path
         id="path14"
         style="fill:#263f65;fill-opacity:1;fill-rule:nonzero;stroke:none"
         d="m 1278.92,855.664 -68.71,0 c -32.27,0 -58.43,-28.152 -58.43,-62.891 l 0,-167.199 c 0,-34.734 26.16,-62.883 58.43,-62.883 l 68.71,0 c 32.26,0 58.44,28.149 58.44,62.883 l 0,167.199 c 0,34.739 -26.18,62.891 -58.44,62.891 z m 671.05,-264.375 c -0.62,10.176 -11.45,28.789 -32.08,51.277 -19.44,21.223 -241.3,267.122 -241.3,267.122 -13.08,12.957 -12.57,34.824 -0.63,51.203 l 225.57,249.129 c 0,0 56.03,54.55 27.34,68.7 -28.26,13.95 -84.92,10.82 -129.55,10.26 -49.45,-0.6 -61.45,-21.13 -74.63,-36.73 -11.82,-13.95 -234.66,-282.633 -234.66,-282.633 0,0 -17.15,-17.41 -17.09,-36.89 0.01,-5.442 0.03,-11.028 0.04,-16.45 0.05,-19.304 17.29,-36.445 17.29,-36.445 0,0 107.1,-125.926 235.59,-272.5 30.25,-34.512 27.75,-39.801 80.66,-42.992 27.59,-1.68 87.16,-3 113.79,1.969 26.63,4.972 30.53,10.941 29.66,24.98 z m -1242.216,695.941 -237.442,0 c -37.707,0 -62.929,-17.54 -62.929,-52.63 0,0 0.027,-18.01 0.027,-22.25 0,-33.54 25.317,-52.53 63.098,-52.53 6.57,0 220.644,0.05 220.644,0.05 107.434,-1.5 148.028,-43.81 148.028,-105.47 0,-81.763 -56.368,-118.111 -155.625,-118.111 0,0 -168.301,0.145 -218.875,0.059 -20.578,-0.059 -57.492,-7.786 -57.492,-45.188 l 0,-267.383 0.046,0 c 0.879,-33.894 26.684,-61.086 58.411,-61.086 l 68.671,0 c 31.719,0 57.532,27.192 58.418,61.086 l 0.403,0 0,192.942 c 0,0 40.672,0 114.422,0 197.629,0 323.771,107.441 323.771,237.351 0,193.76 -207.521,233.16 -323.576,233.16" /><path
         id="path16"
         style="fill:#ec1c2d;fill-opacity:1;fill-rule:nonzero;stroke:none"
         d="m 1353.46,1048.07 c 0,-61.586 -50.14,-111.515 -111.99,-111.515 -61.82,0 -111.96,49.929 -111.96,111.515 0,61.59 50.14,111.51 111.96,111.51 61.85,0 111.99,-49.92 111.99,-111.51" /><path
         id="path18"
         style="fill:#ec1c2d;fill-opacity:1;fill-rule:nonzero;stroke:none"
         d="m 449.355,375.039 c -2.707,0 -5.273,-0.109 -7.707,-0.301 -2.429,-0.199 -4.402,-0.429 -5.878,-0.718 l 0,-46.032 c 0.531,-0.136 1.347,-0.269 2.433,-0.398 1.074,-0.141 2.227,-0.25 3.445,-0.301 1.211,-0.078 2.407,-0.109 3.547,-0.109 1.145,0 1.993,0 2.539,0 3.653,0 7.266,0.332 10.84,1.019 3.594,0.672 6.797,1.93 9.641,3.742 2.84,1.829 5.105,4.36 6.797,7.61 1.687,3.238 2.539,7.508 2.539,12.777 0,4.461 -0.821,8.141 -2.446,11.051 -1.621,2.91 -3.75,5.242 -6.375,7 -2.644,1.75 -5.656,2.961 -9.035,3.641 -3.367,0.691 -6.824,1.019 -10.34,1.019 z M 407.98,395.52 c 5.68,1.07 11.922,1.929 18.758,2.539 6.824,0.601 13.621,0.902 20.379,0.902 7.043,0 14.094,-0.563 21.203,-1.723 7.102,-1.148 13.477,-3.437 19.168,-6.886 5.676,-3.454 10.305,-8.25 13.891,-14.403 3.57,-6.16 5.367,-14.168 5.367,-24.039 0,-8.898 -1.543,-16.449 -4.656,-22.59 -3.113,-6.16 -7.235,-11.199 -12.371,-15.109 -5.149,-3.93 -10.989,-6.762 -17.551,-8.531 -6.555,-1.75 -13.359,-2.629 -20.383,-2.629 -0.68,0 -1.758,0 -3.238,0 -1.504,0 -3.051,0.039 -4.68,0.09 -1.621,0.07 -3.203,0.168 -4.758,0.32 -1.558,0.117 -2.664,0.258 -3.339,0.398 l 0,-48.871 -27.79,0 0,140.532" /><path
         id="path20"
         style="fill:#ec1c2d;fill-opacity:1;fill-rule:nonzero;stroke:none"
         d="m 556.594,325.969 c 0,-7.168 0.613,-13.758 1.824,-19.77 1.23,-6.008 3.086,-11.199 5.586,-15.527 2.5,-4.313 5.715,-7.692 9.641,-10.133 3.906,-2.418 8.582,-3.641 13.992,-3.641 9.863,0 17.5,3.84 22.91,11.551 5.41,7.699 8.125,20.199 8.125,37.52 0,6.883 -0.586,13.312 -1.731,19.261 -1.148,5.95 -2.937,11.161 -5.379,15.61 -2.429,4.469 -5.605,7.949 -9.531,10.449 -3.918,2.5 -8.73,3.75 -14.394,3.75 -9.871,0 -17.52,-3.961 -22.918,-11.859 -5.422,-7.918 -8.125,-20.321 -8.125,-37.211 z m -29.199,0 c 0,23.66 5.203,41.871 15.613,54.652 10.422,12.777 25.285,19.16 44.629,19.16 10.144,0 18.984,-1.761 26.574,-5.269 7.566,-3.512 13.855,-8.512 18.863,-15.012 5,-6.488 8.711,-14.262 11.156,-23.309 2.43,-9.062 3.641,-19.14 3.641,-30.222 0,-23.668 -5.234,-41.891 -15.723,-54.66 -10.476,-12.77 -25.312,-19.149 -44.511,-19.149 -10.282,0 -19.207,1.762 -26.778,5.262 -7.578,3.508 -13.828,8.527 -18.757,15 -4.946,6.5 -8.625,14.269 -11.055,23.328 -2.442,9.051 -3.652,19.121 -3.652,30.219" /><path
         id="path22"
         style="fill:#ec1c2d;fill-opacity:1;fill-rule:nonzero;stroke:none"
         d="m 764.988,254.988 -89.851,0 0,141.953 27.793,0 0,-117.211 62.058,0 0,-24.742" /><path
         id="path24"
         style="fill:#ec1c2d;fill-opacity:1;fill-rule:nonzero;stroke:none"
         d="m 858.359,293.109 c 0,4.332 -1.582,7.84 -4.754,10.551 -3.175,2.699 -7.179,5.168 -11.972,7.399 -4.797,2.242 -10,4.531 -15.625,6.902 -5.61,2.359 -10.813,5.269 -15.61,8.719 -4.812,3.449 -8.789,7.73 -11.96,12.871 -3.184,5.148 -4.778,11.699 -4.778,19.668 0,6.902 1.145,12.883 3.449,17.953 2.305,5.078 5.586,9.289 9.844,12.668 4.246,3.379 9.285,5.879 15.098,7.5 5.82,1.621 12.312,2.441 19.48,2.441 8.254,0 16.02,-0.711 23.332,-2.121 7.305,-1.43 13.313,-3.488 18.047,-6.199 l -8.711,-23.32 c -2.988,1.89 -7.441,3.621 -13.398,5.168 -5.946,1.562 -12.371,2.339 -19.27,2.339 -6.492,0 -11.465,-1.277 -14.91,-3.847 -3.437,-2.571 -5.168,-6.02 -5.168,-10.352 0,-4.051 1.594,-7.429 4.758,-10.129 3.184,-2.718 7.18,-5.218 11.973,-7.5 4.804,-2.308 10,-4.672 15.625,-7.101 5.605,-2.438 10.82,-5.391 15.625,-8.84 4.796,-3.438 8.789,-7.688 11.953,-12.758 3.175,-5.07 4.765,-11.402 4.765,-18.973 0,-7.57 -1.25,-14.089 -3.75,-19.57 -2.5,-5.476 -6.015,-10.039 -10.547,-13.68 -4.531,-3.648 -10,-6.359 -16.425,-8.109 -6.426,-1.758 -13.496,-2.629 -21.192,-2.629 -10.144,0 -19.07,0.949 -26.765,2.828 -7.727,1.883 -13.411,3.793 -17.051,5.684 l 8.926,23.726 c 1.48,-0.82 3.418,-1.699 5.781,-2.636 2.371,-0.961 5.039,-1.832 8.016,-2.641 2.96,-0.812 6.101,-1.492 9.421,-2.019 3.313,-0.551 6.731,-0.813 10.246,-0.813 8.235,0 14.571,1.383 18.958,4.152 4.402,2.758 6.589,6.989 6.589,12.668" /><path
         id="path26"
         style="fill:#ec1c2d;fill-opacity:1;fill-rule:nonzero;stroke:none"
         d="m 952.305,315.621 -7.305,0 0,-60.633 -27.773,0 0,141.953 27.773,0 0,-62.863 6.492,2.832 39.153,60.031 31.645,0 -41.384,-59.621 -10.945,-7.711 11.355,-7.898 47.254,-66.723 -34.273,0 -41.992,60.633" /><path
         id="path28"
         style="fill:#ec1c2d;fill-opacity:1;fill-rule:nonzero;stroke:none"
         d="m 1063.63,254.988 27.8008,0 0,141.953 -27.8008,0 0,-141.953 z" /><path
         id="path30"
         style="fill:#ec1c2d;fill-opacity:1;fill-rule:nonzero;stroke:none"
         d="m 1133.81,396.941 84.18,0 0,-24.742 -56.39,0 0,-33.051 51.31,0 0,-24.75 -51.31,0 0,-34.668 57.4,0 0,-24.742 -85.19,0 0,141.953" /><path
         id="path32"
         style="fill:#ec1c2d;fill-opacity:1;fill-rule:nonzero;stroke:none"
         d="m 1389.52,374.219 c -2.84,0 -5.64,-0.059 -8.43,-0.199 -2.76,-0.129 -4.88,-0.399 -6.37,-0.809 l 0,-41.16 11.76,0 c 7.71,0 13.85,1.75 18.45,5.269 4.6,3.52 6.91,9.328 6.91,17.45 0,6.07 -1.91,10.839 -5.69,14.281 -3.79,3.461 -9.33,5.168 -16.63,5.168 z m -42.6,21.301 c 3.12,0.539 6.46,1.039 10.05,1.519 3.58,0.481 7.16,0.852 10.74,1.109 3.58,0.282 7.08,0.481 10.45,0.622 3.38,0.128 6.5,0.191 9.33,0.191 6.62,0 13.15,-0.59 19.57,-1.82 6.43,-1.211 12.18,-3.313 17.25,-6.289 5.07,-2.973 9.12,-7.063 12.17,-12.262 3.03,-5.211 4.56,-11.719 4.56,-19.57 0,-11.629 -2.7,-21.09 -8.12,-28.391 -5.4,-7.301 -12.64,-12.367 -21.7,-15.207 l 9.95,-6.281 32.44,-54.153 -32.05,0 -32.24,55.563 -14.6,2.64 0,-58.203 -27.8,0 0,140.532" /><path
         id="path34"
         style="fill:#ec1c2d;fill-opacity:1;fill-rule:nonzero;stroke:none"
         d="m 1520.25,308.719 30.42,0 -10.53,31.64 -4.27,22.301 -1.01,0 -4.25,-22.5 -10.36,-31.441 z m 36.52,-22.289 -43.62,0 -10.75,-31.442 -27.78,0 51.11,142.961 20.49,0 51.1,-142.961 -29.19,0 -11.36,31.442" /><path
         id="path36"
         style="fill:#ec1c2d;fill-opacity:1;fill-rule:nonzero;stroke:none"
         d="m 1665.52,374.219 c -2.97,0 -5.98,-0.059 -9.03,-0.199 -3.04,-0.129 -5.3,-0.34 -6.79,-0.598 l 0,-95.113 c 0.52,-0.137 1.45,-0.239 2.73,-0.297 1.29,-0.071 2.67,-0.141 4.15,-0.203 1.51,-0.079 2.91,-0.137 4.27,-0.207 1.35,-0.071 2.36,-0.102 3.04,-0.102 7.84,0 14.37,1.391 19.58,4.148 5.2,2.782 9.33,6.461 12.38,11.051 3.03,4.59 5.17,9.91 6.38,15.922 1.22,6.02 1.83,12.207 1.83,18.559 0,5.539 -0.54,11.121 -1.63,16.742 -1.08,5.59 -3.06,10.637 -5.98,15.098 -2.91,4.468 -6.87,8.109 -11.87,10.949 -5,2.84 -11.36,4.25 -19.06,4.25 z m -43.62,22.722 c 2.85,0.399 6.06,0.75 9.64,1.008 3.59,0.27 7.27,0.481 11.06,0.61 3.79,0.132 7.47,0.242 11.05,0.312 3.59,0.059 6.8,0.09 9.64,0.09 12.57,0 23.31,-1.75 32.25,-5.262 8.92,-3.508 16.16,-8.449 21.69,-14.801 5.54,-6.359 9.61,-13.937 12.17,-22.707 2.57,-8.8 3.86,-18.472 3.86,-29.011 0,-9.59 -1.22,-18.852 -3.65,-27.782 -2.44,-8.918 -6.48,-16.828 -12.17,-23.726 -5.67,-6.891 -13.14,-12.442 -22.41,-16.633 -9.27,-4.18 -20.73,-6.289 -34.39,-6.289 -2.15,0 -5.02,0.078 -8.61,0.211 -3.58,0.148 -7.29,0.309 -11.16,0.508 -3.85,0.191 -7.54,0.41 -11.06,0.609 -3.51,0.203 -6.15,0.434 -7.91,0.711 l 0,142.152" /><path
         id="path38"
         style="fill:#ec1c2d;fill-opacity:1;fill-rule:nonzero;stroke:none"
         d="m 1766.27,254.988 27.7695,0 0,141.953 -27.7695,0 0,-141.953 z" /><path
         id="path40"
         style="fill:#ec1c2d;fill-opacity:1;fill-rule:nonzero;stroke:none"
         d="m 1856.06,325.969 c 0,-7.168 0.61,-13.758 1.82,-19.77 1.23,-6.008 3.08,-11.199 5.6,-15.527 2.49,-4.313 5.7,-7.692 9.63,-10.133 3.91,-2.418 8.58,-3.641 13.98,-3.641 9.87,0 17.51,3.84 22.93,11.551 5.41,7.699 8.11,20.199 8.11,37.52 0,6.883 -0.57,13.312 -1.72,19.261 -1.16,5.95 -2.95,11.161 -5.37,15.61 -2.45,4.469 -5.62,7.949 -9.54,10.449 -3.92,2.5 -8.73,3.75 -14.41,3.75 -9.86,0 -17.51,-3.961 -22.91,-11.859 -5.41,-7.918 -8.12,-20.321 -8.12,-37.211 z m -29.2,0 c 0,23.66 5.19,41.871 15.62,54.652 10.41,12.777 25.28,19.16 44.61,19.16 10.16,0 19,-1.761 26.57,-5.269 7.59,-3.512 13.87,-8.512 18.87,-15.012 5,-6.488 8.73,-14.262 11.16,-23.309 2.43,-9.062 3.64,-19.14 3.64,-30.222 0,-23.668 -5.23,-41.891 -15.71,-54.66 -10.48,-12.77 -25.33,-19.149 -44.53,-19.149 -10.27,0 -19.2,1.762 -26.76,5.262 -7.59,3.508 -13.84,8.527 -18.77,15 -4.94,6.5 -8.62,14.269 -11.05,23.328 -2.43,9.051 -3.65,19.121 -3.65,30.219" /></g></g></svg>