<?xml version="1.0" encoding="UTF-8"?>
<!DOCTYPE svg PUBLIC "-//W3C//DTD SVG 1.1//EN" "http://www.w3.org/Graphics/SVG/1.1/DTD/svg11.dtd">
<!-- Creator: CorelDRAW -->
<svg xmlns="http://www.w3.org/2000/svg" xml:space="preserve" width="105.312mm" height="37.019mm" style="shape-rendering:geometricPrecision; text-rendering:geometricPrecision; image-rendering:optimizeQuality; fill-rule:evenodd; clip-rule:evenodd"
viewBox="0 0 105.312 37.019"
 xmlns:xlink="http://www.w3.org/1999/xlink">
 <defs>
  <style type="text/css">
   <![CDATA[
    .str0 {stroke:white;stroke-width:0.0762}
    .fil1 {fill:#E21836}
    .fil2 {fill:#E21836;fill-rule:nonzero}
    .fil0 {fill:white;fill-rule:nonzero}
   ]]>
  </style>
 </defs>
 <g id="Warstwa_x0020_1">
  <metadata id="CorelCorpID_0Corel-Layer"/>
  <g id="_135418448">
   <polygon id="_58734336" class="fil0 str0" points="-0,37.0191 105.312,37.0191 105.312,-0.0001 -0,-0.0001 "/>
   <polygon id="_59257056" class="fil0" points="38.4204,18.4359 101.629,18.4359 101.629,3.4073 38.4204,3.4073 "/>
   <path id="_59178616" class="fil1" d="M37.1492 1.9698l0 16.4663 0 6.003 0 10.4628 33.022 0 0 -10.4628 0 10.4628 33.0421 0 0 -10.4628 0 -6.003 0 -16.4663 -33.0421 0 0 2.1745 30.8689 0 0 14.2918 -61.7351 0 0 -14.2918 30.8662 0 0 -2.1745 -33.022 0zm33.022 22.4693l-30.8662 0m61.7351 0l-30.8689 0m30.8689 0l0 0 0 0z"/>
   <g>
    <path id="_62019032" class="fil1" d="M42.5249 13.9363l-0.8824 0 0 -5.793 0.9899 0c0.2605,0 0.4766,0 0.6692,0.0218 0.4527,0.044 0.7095,0.1284 0.9669,0.3446 0.3911,0.3022 0.6484,0.818 0.6484,1.3568 0,0.9475 -0.625,1.5728 -1.6153,1.7014 -0.1284,0 -0.2364,0.0203 -0.3648,0.0203l-0.4119 0 0 2.3481zm0.7767 -4.9521c-0.152,-0.0217 -0.3007,-0.0437 -0.4761,-0.0437l-0.3006 0 0 1.8302 0.3236 0c0.1728,0 0.3247,0 0.4531,-0.0429 0.5169,-0.0855 0.7534,-0.3884 0.7534,-0.8827 0,-0.4736 -0.2365,-0.7544 -0.7534,-0.8609z"/>
    <path id="_60806744" class="fil1" d="M48.6434 14.0649c-1.7232,-0.0204 -3.0379,-1.3333 -3.0379,-3.0565 0,-1.6147 1.3783,-2.9732 3.0379,-2.994 1.656,0 3.0137,1.3573 3.0137,3.0361 0,1.6371 -1.3577,3.0144 -3.0137,3.0144zm0 -5.2105c-1.23,0 -2.1554,0.9475 -2.1554,2.1961 0,1.227 0.9459,2.175 2.1554,2.175 1.1595,0 2.1288,-0.9684 2.1288,-2.175 0,-1.2486 -0.9255,-2.1961 -2.1288,-2.1961z"/>
    <polygon id="_3993984" class="fil1" points="53.7015,13.1187 55.4247,13.1187 55.4247,13.9361 52.8401,13.9361 52.8401,8.1431 53.7015,8.1431 "/>
    <path id="_3994056" class="fil1" d="M58.9121 9.4357c-0.2802,-0.4515 -0.4734,-0.5815 -0.8817,-0.5815 -0.4734,0 -0.8416,0.3012 -0.8416,0.7116 0,0.1931 0.0873,0.3664 0.2805,0.4949 0.1926,0.1284 0.1079,0.0861 0.9255,0.4312 0.947,0.3862 1.3584,0.9036 1.3584,1.6787 0,1.0765 -0.7767,1.8941 -1.8314,1.8941 -1.0336,0 -1.7227,-0.6233 -1.8746,-1.7228l0.8849 -0.1931c0.0406,0.3451 0.0844,0.4746 0.1723,0.6233 0.1488,0.2824 0.4728,0.4532 0.8174,0.4532 0.5575,0 0.97,-0.4094 0.97,-0.9685 0,-0.3226 -0.152,-0.5809 -0.4125,-0.7532 -0.1283,-0.0862 -0.2771,-0.1723 -0.4285,-0.2381l-0.1931 -0.0642 -0.1723 -0.0845 -0.1926 -0.0878c-0.7977,-0.3226 -1.1857,-0.8181 -1.1857,-1.4632 0,-0.8834 0.7534,-1.551 1.7437,-1.551 0.689,0 1.1625,0.3023 1.5505,0.9897l-0.6892 0.4312z"/>
    <polygon id="_3994128" class="fil1" points="64.0377,8.1431 65.2003,8.1431 62.5953,10.7706 65.2238,13.9363 64.058,13.9363 61.9699,11.3533 61.7772,11.5469 61.7772,13.9363 60.8923,13.9363 60.8923,8.1431 61.7772,8.1431 61.7772,10.448 "/>
    <polygon id="_3994200" class="fil2" points="66.0821,13.9364 66.9638,13.9364 66.9638,8.1433 66.0821,8.1433 "/>
    <polygon id="_3994272" class="fil1" points="69.3356,8.9624 69.3356,10.3631 71.5761,10.3631 71.5761,11.1805 69.3356,11.1805 69.3356,13.1188 71.6403,13.1188 71.6403,13.9364 68.4506,13.9364 68.4506,8.1433 71.6403,8.1433 71.6403,8.9624 "/>
    <path id="_60880704" class="fil1" d="M76.7834 12.4296l-0.6019 -0.8615 -0.1521 0 0 2.368 -0.8821 0 0 -5.7932 1.0342 0c0.2364,0 0.4296,0 0.6019,0.022 0.3884,0.0438 0.6686,0.152 0.9282,0.3233 0.4296,0.2594 0.6891,0.7971 0.6891,1.3566 0,0.8176 -0.5163,1.4646 -1.2937,1.6372l1.8078 2.4541 -1.0742 0 -1.0572 -1.5065zm0 -3.4247c-0.1284,-0.0203 -0.2778,-0.0422 -0.4499,-0.0422l-0.3041 0 0 1.8291 0.2837 0c0.1691,0 0.3419,0 0.4703,-0.0422 0.4963,-0.1074 0.7768,-0.4099 0.7768,-0.9048 0,-0.4514 -0.2805,-0.7318 -0.7768,-0.8399z"/>
    <path id="_60806144" class="fil1" d="M81.0504 12.5362l-0.6485 1.4001 -0.9464 0 2.8415 -6.0933 0.0209 -0.0647 2.7798 6.158 -0.9695 0 -0.6045 -1.4001 -1.2267 0 -1.2466 0zm1.2466 -2.7554l-0.8845 1.9159 0.8845 0 0.8821 0 -0.8612 -1.9588 -0.0209 0.0429z"/>
    <path id="_60804968" class="fil1" d="M85.656 8.1431l1.2058 0c0.4094,0 0.754,0.022 1.0342,0.0862 0.4291,0.0642 0.7973,0.2371 1.1214,0.4751 0.7298,0.5387 1.1156,1.3563 1.1156,2.3466 0,0.9679 -0.4062,1.7869 -1.1594,2.3262 -0.3473,0.2568 -0.6689,0.4088 -1.0776,0.4949 -0.2802,0.0438 -0.6248,0.0642 -1.0342,0.0642l-1.2058 0 0 -5.7932zm2.24 0.9476c-0.26,-0.0862 -0.5809,-0.1285 -0.9699,-0.1285l-0.3884 0 0 4.1566 0.3884 0c0.389,0 0.7099,-0.0439 0.9699,-0.1301 0.2161,-0.0641 0.3884,-0.1508 0.581,-0.3012 0.4966,-0.3659 0.7977,-0.9693 0.7977,-1.6585 0,-0.666 -0.3011,-1.2915 -0.7977,-1.6575 -0.1723,-0.1284 -0.3649,-0.2161 -0.581,-0.2808z"/>
    <polygon id="_3994560" class="fil2" points="91.3191,13.9364 92.2008,13.9364 92.2008,8.1433 91.3191,8.1433 "/>
    <path id="_60879216" class="fil1" d="M96.421 14.0649c-1.7202,-0.0204 -3.0141,-1.3333 -3.0141,-3.0565 0,-1.6147 1.3786,-2.9732 3.0141,-2.994l0.0235 0c1.6563,0 3.0142,1.3573 3.0142,3.0361 0,1.6371 -1.3579,3.0144 -3.0142,3.0144l-0.0235 0zm0 -5.2105c-1.2033,0 -2.1519,0.9475 -2.1519,2.1961 0,1.227 0.9689,2.175 2.1519,2.175l0.0235 0c1.1829,0 2.1524,-0.9684 2.1524,-2.175 0,-1.2486 -0.946,-2.1961 -2.1524,-2.1961l-0.0235 0z"/>
   </g>
   <g>
    <path id="_62017712" class="fil0" d="M98.4377 28.4833l0 -2.6539 -1.9523 -3.1447 0.9896 0 1.2154 1.9685c0.0297,0.0501 0.0663,0.1162 0.1096,0.1987 0.0433,0.0812 0.0879,0.1691 0.1324,0.2651 0.0366,-0.0934 0.0758,-0.1798 0.1163,-0.2624 0.0419,-0.0811 0.0838,-0.1568 0.1298,-0.2257l1.2479 -1.9442 0.9422 0 -1.9967 3.1447 0 2.6539 -0.9342 0z"/>
    <path id="_58734576" class="fil0" d="M96.0217 24.0949c-0.2664,-0.2272 -0.5488,-0.3975 -0.845,-0.5111 -0.2974,-0.1135 -0.6097,-0.1703 -0.9368,-0.1703 -0.6341,0 -1.1493,0.2029 -1.5467,0.6097 -0.3975,0.407 -0.5961,0.9342 -0.5961,1.5804 0,0.626 0.1931,1.1424 0.5799,1.5494 0.3866,0.407 0.8746,0.6097 1.4641,0.6097 0.342,0 0.6692,-0.0609 0.9802,-0.1825 0.3095,-0.1217 0.607,-0.3042 0.8923,-0.5503l0 1.0654c-0.2529,0.1825 -0.5299,0.3177 -0.8274,0.407 -0.2988,0.0905 -0.6219,0.1351 -0.9707,0.1351 -0.4435,0 -0.8531,-0.073 -1.2303,-0.2176 -0.3759,-0.146 -0.7071,-0.3596 -0.9923,-0.6422 -0.2826,-0.2772 -0.4989,-0.6044 -0.6518,-0.9801 -0.1513,-0.376 -0.227,-0.7775 -0.227,-1.202 0,-0.4259 0.0757,-0.8246 0.227,-1.1978 0.1529,-0.3745 0.3719,-0.7017 0.6599,-0.9842 0.2879,-0.2852 0.6178,-0.5015 0.9909,-0.6476 0.3719,-0.1473 0.7747,-0.2204 1.2073,-0.2204 0.3407,0 0.6652,0.05 0.9748,0.1487 0.3083,0.0986 0.6083,0.2488 0.899,0.4489l-0.0513 0.9518z"/>
    <polygon id="_59257008" class="fil0" points="89.4701,28.4833 89.4701,22.6847 90.4123,22.6847 90.4123,28.4833 "/>
    <path id="_62018528" class="fil0" d="M83.2055 28.4833l0 -6.0284 3.6827 3.5448c0.1014,0.1001 0.2028,0.2069 0.3056,0.3205 0.1027,0.1136 0.2108,0.242 0.3244,0.3853l0 -4.0208 0.872 0 0 6.0244 -3.7585 -3.6085c-0.1,-0.0973 -0.1972,-0.1999 -0.2907,-0.3081 -0.0947,-0.1095 -0.1838,-0.2218 -0.2676,-0.3408l0 4.0316 -0.8679 0z"/>
    <path id="_3994704" class="fil0" d="M81.7975 28.4833l-0.6584 -1.494 -2.2956 0 -0.6732 1.494 -0.9911 0 2.808 -6.0284 2.8041 6.0284 -0.9938 0zm-2.6066 -2.2781l1.6157 0 -0.5936 -1.3222c-0.0337,-0.0851 -0.0703,-0.1825 -0.1067,-0.292 -0.0365,-0.1094 -0.0745,-0.2311 -0.111,-0.3664 -0.0323,0.1271 -0.0647,0.2462 -0.1013,0.3556 -0.0352,0.1095 -0.0716,0.2097 -0.1082,0.3028l-0.5949 1.3222z"/>
    <path id="_3994992" class="fil0" d="M73.7743 25.8889l0 2.5944 -0.8828 0 0 -5.7986 1.3141 0c0.3853,0 0.6854,0.0258 0.8977,0.0757 0.2123,0.0501 0.3934,0.1326 0.5448,0.2489 0.1798,0.1405 0.3177,0.3217 0.4164,0.5434 0.0973,0.2218 0.1461,0.4637 0.1461,0.7288 0,0.4636 -0.1122,0.8274 -0.3367,1.0909 -0.2244,0.2624 -0.557,0.4205 -0.995,0.4731l1.9968 2.6378 -1.0653 0 -1.9293 -2.5944 -0.1068 0zm0.0595 -0.7328l0.1704 0c0.4989,0 0.8302,-0.0581 0.9936,-0.1744 0.1637,-0.1163 0.246,-0.3218 0.246,-0.6178 0,-0.3192 -0.0879,-0.5436 -0.2636,-0.6746 -0.1758,-0.1311 -0.5015,-0.1961 -0.976,-0.1961l-0.1704 0 0 1.6629z"/>
    <path id="_62017976" class="fil0" d="M69.9887 25.513l2.297 0c0,0.0392 0.0013,0.0947 0.004,0.1663 0.0081,0.188 0.0122,0.3137 0.0122,0.38 0,0.8165 -0.2339,1.4492 -0.7016,1.9009 -0.4665,0.4515 -1.1249,0.6772 -1.9753,0.6772 -0.4759,0 -0.8991,-0.0702 -1.2721,-0.2096 -0.3719,-0.1405 -0.6977,-0.3515 -0.9776,-0.634 -0.2744,-0.2799 -0.4852,-0.6084 -0.6312,-0.9869 -0.1474,-0.3772 -0.2205,-0.7815 -0.2205,-1.2114 0,-0.438 0.0744,-0.8422 0.2244,-1.2113 0.1488,-0.3705 0.3692,-0.6963 0.6626,-0.9789 0.2826,-0.277 0.6138,-0.488 0.9949,-0.6341 0.38,-0.1446 0.7869,-0.2176 1.2195,-0.2176 0.457,0 0.8653,0.0839 1.2262,0.2502 0.3597,0.1662 0.6814,0.4205 0.964,0.7638l-0.6895 0.5192c-0.1961,-0.2272 -0.4164,-0.3962 -0.6611,-0.507 -0.2461,-0.1109 -0.5205,-0.1663 -0.8247,-0.1663 -0.6273,0 -1.1397,0.2013 -1.5372,0.6043 -0.3974,0.4029 -0.5961,0.9261 -0.5961,1.5696 0,0.6557 0.1987,1.187 0.5961,1.594 0.3975,0.4083 0.9126,0.6124 1.5453,0.6124 0.5395,0 0.9626,-0.1257 1.2708,-0.3759 0.3097,-0.2515 0.4639,-0.592 0.4639,-1.0261l0 -0.0824 -1.394 0 0 -0.7964z"/>
    <path id="_60880512" class="fil0" d="M65.7772 28.4833l-0.6583 -1.494 -2.2956 0 -0.6732 1.494 -0.9912 0 2.8081 -6.0284 2.804 6.0284 -0.9938 0zm-2.6065 -2.2781l1.6156 0 -0.5935 -1.3222c-0.0338,-0.0851 -0.0704,-0.1825 -0.1068,-0.292 -0.0365,-0.1094 -0.0744,-0.2311 -0.1109,-0.3664 -0.0324,0.1271 -0.0647,0.2462 -0.1013,0.3556 -0.0352,0.1095 -0.0716,0.2097 -0.1082,0.3028l-0.5949 1.3222z"/>
    <polygon id="_62019512" class="fil0" points="56.2798,28.4833 59.2339,23.4851 56.7747,23.4851 56.7747,22.6847 60.6845,22.6847 57.7575,27.6397 60.7197,27.6397 60.7197,28.4833 "/>
    <path id="_58734048" class="fil0" d="M52.8838 28.4833l-0.6584 -1.494 -2.2956 0 -0.6732 1.494 -0.9911 0 2.808 -6.0284 2.8039 6.0284 -0.9936 0zm-2.6066 -2.2781l1.6155 0 -0.5934 -1.3222c-0.0338,-0.0851 -0.0704,-0.1825 -0.1067,-0.292 -0.0365,-0.1094 -0.0745,-0.2311 -0.111,-0.3664 -0.0324,0.1271 -0.0648,0.2462 -0.1013,0.3556 -0.0353,0.1095 -0.0717,0.2097 -0.1082,0.3028l-0.5949 1.3222z"/>
    <polygon id="_41652784" class="fil0" points="44.8398,28.4833 44.8398,22.6847 45.7821,22.6847 45.7821,27.6397 47.8898,27.6397 47.8898,28.4833 "/>
    <path id="_60806024" class="fil0" d="M39.2357 28.4833l0 -5.7986 1.2708 0c0.8274,0 1.4089,0.042 1.7454,0.1245 0.3367,0.0838 0.6314,0.223 0.8856,0.4178 0.3352,0.2568 0.5894,0.5853 0.7626,0.9869 0.1729,0.4015 0.2594,0.8598 0.2594,1.3735 0,0.5151 -0.0865,0.972 -0.2594,1.3695 -0.1732,0.3976 -0.4274,0.7247 -0.7626,0.9844 -0.2542,0.1945 -0.5422,0.3339 -0.8653,0.4176 -0.3245,0.0825 -0.8274,0.1244 -1.5114,0.1244l-0.2543 0 -1.2708 0zm0.9423 -0.8517l0.7923 0c0.4354,0 0.7625,-0.0285 0.9801,-0.0865 0.2177,-0.0582 0.407,-0.1569 0.5692,-0.2934 0.219,-0.188 0.3827,-0.4205 0.4921,-0.699 0.1095,-0.2785 0.165,-0.6029 0.165,-0.9734 0,-0.3692 -0.0555,-0.6936 -0.165,-0.972 -0.1094,-0.2786 -0.2731,-0.5111 -0.4921,-0.6991 -0.1635,-0.1365 -0.3609,-0.2352 -0.5881,-0.2934 -0.2284,-0.058 -0.5867,-0.0863 -1.072,-0.0863l-0.3408 0 -0.3407 0 0 4.1031z"/>
   </g>
   <g>
    <path id="_59407368" class="fil1" d="M18.4929 3.8494l0 2.1934c6.9071,0 12.5053,5.5981 12.5053,12.5024 0.0001,6.907 -5.5982,12.5081 -12.5053,12.5081l0 2.1731c8.1036,0 14.6785,-6.5775 14.6785,-14.6812 0,-8.1036 -6.5749,-14.6958 -14.6785,-14.6958zm0 0c-8.1237,0 -14.6985,6.5922 -14.6985,14.6958 0,8.1037 6.5748,14.6812 14.6985,14.6812l0 -2.1731c-6.9069,0 -12.5076,-5.6011 -12.5076,-12.5081 0,-6.9044 5.6007,-12.5024 12.5076,-12.5024l0 -2.1934z"/>
    <path id="_59406480" class="fil1" d="M18.4929 8.2881l0 2.1732c4.4566,0 8.0862,3.6097 8.0862,8.0839 0,4.4765 -3.6296,8.0867 -8.0862,8.0867l0 2.1731c5.6705,0 10.2571,-4.584 10.2571,-10.2598 0,-5.6707 -4.5866,-10.2571 -10.2571,-10.2571zm0 0c-5.6728,0 -10.2593,4.5865 -10.2593,10.2571 0,5.6758 4.5865,10.2598 10.2593,10.2598l0 -2.1731c-4.4763,0 -8.1035,-3.6102 -8.1035,-8.0867 0,-4.4742 3.6271,-8.0839 8.1035,-8.0839l0 -2.1732z"/>
    <path id="_59407488" class="fil1" d="M18.4929 24.2933c3.1676,0 5.7456,-2.5779 5.7456,-5.7481 0,-3.165 -2.578,-5.7426 -5.7456,-5.7426l0 2.1156c2.0061,0 3.6272,1.6216 3.6272,3.627 0,2.0085 -1.6211,3.6301 -3.6272,3.6301l0 2.118zm0 -11.4908c-3.1874,0 -5.7479,2.5777 -5.7479,5.7427 0,3.1702 2.5605,5.7481 5.7479,5.7481l0 -2.118c-2.0085,0 -3.6296,-1.6216 -3.6296,-3.6301 0,-2.0054 1.6211,-3.627 3.6296,-3.627l0 -2.1157z"/>
    <path id="_62007344" class="fil1" d="M35.0499 35.0676l0 -33.0968 -16.557 0 0 2.1732 14.3839 0 0 28.7875 -14.3839 0 0 2.1361 16.557 0zm-16.557 -33.0968l-16.5771 0 0 33.0968 16.5771 0 0 -2.1361 -14.4036 0 0 -28.7875 14.4036 0 0 -2.1732z"/>
   </g>
  </g>
 </g>
</svg>
